<?xml version="1.0" standalone="no"?>
<!DOCTYPE svg PUBLIC "-//W3C//DTD SVG 20010904//EN"
 "http://www.w3.org/TR/2001/REC-SVG-20010904/DTD/svg10.dtd">
<svg version="1.0" xmlns="http://www.w3.org/2000/svg"
 width="1280.000000pt" height="1280.000000pt" viewBox="0 0 1280.000000 1280.000000"
 preserveAspectRatio="xMidYMid meet">
<g transform="translate(0.000000,1280.000000) scale(0.100000,-0.100000)"
fill="#000000" stroke="none">
<path d="M6340 11932 c0 -14 11 -21 26 -15 8 3 11 9 8 14 -7 11 -34 12 -34 1z"/>
<path d="M6343 11854 c-21 -23 -21 -24 -3 -24 10 0 23 -7 28 -16 8 -15 10 -15
15 0 6 14 -7 68 -15 65 -2 -1 -13 -12 -25 -25z"/>
<path d="M6350 11734 l0 -37 -21 27 c-24 31 -36 28 -19 -3 9 -18 8 -21 -7 -21
-13 -1 -10 -5 10 -16 16 -9 31 -13 34 -10 3 3 15 1 26 -5 11 -7 17 -7 13 -1
-3 5 4 13 17 17 18 6 19 8 5 12 -16 4 -17 6 -1 31 l17 27 -30 -28 -31 -27 5
29 c2 16 -1 32 -7 35 -7 5 -11 -6 -11 -30z"/>
<path d="M6384 11568 l3 -47 -32 24 c-17 14 -35 25 -39 25 -13 0 23 -44 46
-57 21 -11 19 -12 -27 -13 -40 0 -46 -3 -32 -11 11 -6 30 -9 43 -6 l25 4 -23
-25 -23 -26 28 17 c15 10 32 15 37 12 6 -3 10 1 10 10 0 8 10 20 23 25 12 5
15 9 8 9 -12 1 -12 4 -3 13 7 7 12 19 12 27 0 11 -5 10 -22 -5 -16 -14 -20
-15 -16 -4 3 9 -1 29 -8 45 -14 30 -14 30 -10 -17z"/>
<path d="M6461 11430 c-2 -23 -3 -24 -15 -7 -18 23 -29 22 -17 -2 9 -16 8 -18
-12 -14 -20 4 -21 3 -5 -10 10 -8 15 -17 11 -21 -4 -3 7 -1 24 5 29 10 54 39
33 39 -5 0 -11 8 -13 18 -3 12 -5 9 -6 -8z"/>
<path d="M6356 11363 c4 -15 16 -38 27 -50 25 -28 15 -30 -21 -3 -15 11 -49
22 -77 26 l-50 5 40 -25 c22 -14 56 -29 75 -32 61 -11 69 -23 17 -24 -35 0
-62 -8 -100 -31 l-52 -31 60 7 c33 3 75 15 94 26 18 11 35 18 37 16 2 -2 -9
-19 -25 -38 -25 -30 -61 -99 -61 -117 0 -17 66 59 82 96 22 49 26 52 21 15 -3
-16 1 -41 8 -58 l12 -30 8 34 c4 19 3 45 -2 58 -13 35 -12 36 13 13 32 -30 36
-14 4 19 -24 25 -26 33 -20 72 7 44 -9 48 -19 4 -3 -17 -6 -15 -16 12 -7 17
-24 39 -37 48 -24 16 -25 16 -18 -12z"/>
<path d="M6240 11125 c0 -15 -3 -16 -12 -7 -7 7 -17 12 -22 12 -6 -1 0 -10 13
-20 l23 -20 -31 0 c-17 0 -31 -5 -31 -11 0 -8 11 -9 32 -5 l32 6 -24 -25 c-13
-14 -19 -25 -13 -25 6 0 17 7 24 16 12 14 14 14 20 -3 7 -16 8 -16 8 0 1 9 6
17 12 17 5 0 7 6 3 12 -5 7 -9 21 -9 31 -1 10 -7 23 -13 29 -9 9 -12 7 -12 -7z"/>
<path d="M6495 11030 c18 -20 17 -20 -13 -20 -17 0 -34 -5 -38 -11 -5 -9 6
-10 39 -7 l46 5 -30 -29 c-32 -32 -40 -59 -11 -37 9 7 27 24 38 37 l22 25 -6
-48 c-3 -35 -2 -46 7 -41 6 4 11 23 11 43 l0 35 20 -23 c20 -24 27 -16 10 11
-6 9 -5 17 3 22 6 4 1 9 -15 13 -15 4 -29 16 -32 28 -5 17 -8 19 -15 8 -6 -9
-11 -10 -15 -2 -4 6 -14 11 -23 11 -14 0 -14 -3 2 -20z"/>
<path d="M6365 10980 c-25 -26 -48 -64 -62 -103 -21 -57 -23 -59 -19 -22 4 40
-21 125 -38 125 -10 0 -3 -116 9 -145 8 -19 7 -19 -16 1 -13 12 -30 24 -37 29
-26 14 6 -32 39 -58 29 -23 31 -27 21 -55 -6 -18 -7 -42 -2 -59 7 -27 8 -26
16 17 l7 45 17 -40 c17 -40 75 -103 85 -93 11 11 -29 100 -51 115 -45 29 -17
24 32 -6 35 -20 68 -31 114 -36 36 -4 63 -4 60 -2 -28 27 -123 69 -177 79 -60
10 -64 13 -38 19 17 4 45 7 63 8 30 1 179 78 169 87 -12 12 -160 -27 -212 -56
-64 -36 -64 -35 1 40 24 26 67 126 62 142 -2 5 -21 -10 -43 -32z"/>
<path d="M6174 10643 c-3 -12 -17 -24 -32 -28 -15 -4 -21 -9 -15 -12 9 -3 8
-11 -4 -29 -21 -32 -12 -39 16 -13 21 20 23 20 21 3 -4 -38 0 -64 11 -64 7 0
10 18 7 50 -2 42 -1 47 9 33 18 -27 56 -63 66 -63 12 0 -21 50 -47 71 -19 16
-17 16 34 13 40 -3 49 -2 35 5 -11 5 -33 10 -50 11 -27 1 -28 2 -9 10 12 5 25
13 29 19 8 13 -15 14 -35 1 -9 -6 -17 -5 -22 3 -6 8 -10 5 -14 -10z"/>
<path d="M6510 10595 c0 -33 7 -81 15 -107 8 -27 12 -48 10 -48 -2 0 -17 19
-34 42 -28 38 -165 129 -146 97 28 -46 84 -103 129 -129 55 -32 52 -35 -21
-20 -29 6 -72 7 -108 2 l-60 -8 58 -18 c48 -15 66 -16 109 -7 59 13 74 8 26
-8 -32 -11 -88 -57 -88 -72 0 -13 74 22 102 48 l26 25 -8 -37 c-11 -48 6 -33
25 21 9 28 20 40 36 42 13 2 32 10 43 18 20 14 20 14 -5 14 -14 0 -31 -6 -39
-12 -8 -7 -3 1 11 17 25 28 56 101 47 111 -8 7 -65 -61 -76 -91 -10 -27 -11
-25 -6 18 5 33 1 62 -11 95 -27 71 -35 73 -35 7z"/>
<path d="M6185 10388 c5 -7 15 -22 24 -32 15 -18 15 -19 -4 -11 -30 13 -125
18 -125 7 0 -14 75 -40 107 -36 18 2 13 -1 -16 -11 -40 -13 -137 -82 -128 -91
8 -9 104 30 137 55 59 46 64 46 32 -1 -27 -40 -62 -162 -49 -175 11 -11 69
105 81 160 l12 62 12 -57 c6 -32 25 -81 42 -110 l32 -53 -6 58 c-4 36 -16 73
-31 97 -32 51 -32 60 3 28 26 -26 71 -48 94 -48 21 0 -37 52 -77 71 -35 15
-37 18 -15 18 14 1 32 6 40 12 11 8 0 9 -42 6 -52 -5 -58 -3 -72 18 -18 27
-65 58 -51 33z"/>
<path d="M6540 10264 c0 -19 58 -99 84 -115 40 -25 29 -24 -36 2 -44 17 -64
19 -123 13 l-70 -7 55 -20 c30 -11 91 -23 135 -26 l80 -7 -60 -19 c-52 -17
-182 -106 -184 -126 -2 -18 153 51 197 89 28 23 53 42 56 42 4 0 -8 -25 -25
-56 -26 -45 -64 -181 -55 -192 2 -1 20 23 40 54 27 41 40 73 46 116 11 75 20
86 20 25 0 -37 7 -56 31 -90 l32 -42 -6 54 c-4 29 -15 68 -25 85 l-19 32 35
-18 c20 -10 38 -16 40 -13 6 5 -42 45 -73 60 -13 7 -19 19 -17 34 2 13 1 40
-3 60 -6 30 -8 33 -17 17 -6 -10 -7 -32 -4 -49 l6 -32 -24 38 c-20 32 -116
108 -116 91z"/>
<path d="M6048 10015 c-16 -28 -18 -112 -4 -154 22 -59 19 -74 -4 -29 -17 31
-73 78 -94 78 -9 0 34 -72 48 -82 6 -4 20 -14 31 -23 20 -16 20 -16 -2 -10
-13 3 -30 2 -40 -4 -17 -9 -1 -14 77 -24 8 -1 17 -11 20 -22 6 -24 32 -65 41
-65 9 0 -1 41 -15 60 -6 8 3 4 21 -8 28 -20 123 -43 123 -30 0 12 -78 58 -101
59 -13 1 0 5 29 10 44 7 152 52 152 62 0 6 -115 -4 -140 -13 -14 -4 -43 -16
-65 -25 l-40 -16 52 48 c33 31 60 69 77 106 13 31 22 57 18 57 -18 0 -102 -99
-126 -147 -15 -29 -27 -53 -29 -53 -1 0 -1 30 1 67 2 67 -18 177 -30 158z"/>
<path d="M6367 9693 l-37 -189 34 -172 c18 -95 29 -169 23 -163 -5 5 -48 70
-95 144 -85 131 -90 138 -217 240 -71 58 -132 104 -133 102 -2 -2 30 -68 72
-147 l75 -143 140 -104 c77 -58 139 -106 137 -108 -1 -2 -55 22 -119 52 l-116
55 -126 -7 c-69 -3 -122 -9 -118 -13 4 -4 61 -30 126 -58 l117 -52 118 -1 117
-1 -66 -17 c-49 -12 -80 -28 -118 -60 -28 -24 -51 -44 -51 -46 0 -2 38 7 84
19 62 16 97 32 130 59 24 20 47 37 50 37 3 0 6 -19 7 -42 0 -24 4 -61 9 -83 7
-30 8 -20 4 43 -3 45 -3 82 -1 82 3 0 30 -20 61 -44 45 -35 73 -48 132 -61 42
-9 77 -15 79 -13 3 2 -21 24 -52 48 -41 33 -75 50 -123 61 l-65 17 131 1 131
1 114 57 114 57 -140 8 -140 8 -110 -56 c-60 -30 -101 -48 -90 -40 11 9 75 57
142 106 l121 89 80 151 c44 82 77 150 73 150 -3 -1 -64 -47 -136 -104 l-130
-102 -92 -149 c-51 -83 -93 -145 -93 -138 0 6 16 82 36 169 l37 158 -38 175
c-21 97 -41 184 -45 195 -4 11 -21 -55 -43 -171z"/>
<path d="M6590 9742 c0 -18 5 -42 11 -53 10 -20 10 -20 -16 -3 -35 23 -43 11
-9 -15 15 -11 21 -21 15 -21 -7 0 -9 -5 -6 -11 4 -6 14 -8 22 -5 8 4 23 -4 34
-16 10 -13 18 -17 19 -11 0 8 10 11 30 7 37 -8 41 13 5 22 -24 6 -24 7 17 27
31 15 38 23 25 25 -10 2 -36 -6 -58 -17 l-40 -21 20 28 c11 15 23 41 26 57 l6
30 -25 -30 c-14 -16 -26 -38 -26 -47 0 -10 -4 -18 -10 -18 -5 0 -10 12 -10 28
-1 15 -7 38 -15 52 l-14 25 -1 -33z"/>
<path d="M5921 9144 c-1 -6 -14 -9 -33 -6 l-33 5 25 -21 c23 -20 24 -21 5 -22
-11 0 -31 -7 -45 -15 l-25 -14 28 -1 c15 0 42 7 60 16 l32 17 -21 -24 c-18
-22 -44 -71 -44 -86 0 -14 43 34 61 67 l18 35 1 -40 c1 -22 5 -49 9 -60 7 -18
8 -17 14 7 4 15 2 39 -4 54 -9 26 -9 27 8 13 34 -30 46 -34 34 -11 -6 12 -16
24 -22 28 -8 4 -7 9 2 15 10 6 6 9 -12 9 -16 0 -33 9 -42 23 -9 12 -16 17 -16
11z"/>
<path d="M6820 8940 c4 -22 15 -49 24 -59 33 -36 14 -31 -35 11 -40 33 -66 46
-122 59 -40 10 -73 16 -75 15 -1 -2 24 -26 57 -54 44 -39 73 -55 117 -66 l59
-15 -91 5 c-88 5 -93 4 -190 -35 l-99 -40 111 0 c96 -1 121 3 197 28 48 17 87
27 87 23 -1 -4 -35 -31 -78 -61 -71 -49 -82 -62 -134 -153 -31 -55 -53 -98
-48 -96 4 2 46 33 92 69 67 53 92 81 132 147 28 45 51 80 53 78 2 -2 -3 -44
-11 -93 -14 -79 -14 -98 -1 -173 8 -47 15 -89 15 -94 0 -24 13 9 33 86 23 84
23 85 5 164 -24 110 -22 119 13 44 24 -53 40 -72 84 -103 30 -21 55 -36 55
-34 0 3 -13 33 -30 68 -21 46 -43 75 -79 104 -50 38 -64 62 -19 31 13 -9 42
-16 68 -16 l45 1 -35 18 c-19 10 -54 22 -77 26 -47 7 -57 17 -67 60 -7 31 -46
95 -57 95 -4 0 -3 -18 1 -40z"/>
<path d="M6048 8891 c-20 -32 -39 -78 -43 -104 -6 -39 -11 -47 -38 -56 -16 -6
-47 -11 -69 -11 -24 0 -58 -11 -93 -31 -30 -17 -55 -32 -55 -33 0 -1 30 0 68
2 48 3 80 12 112 30 53 30 49 25 -46 -56 -54 -46 -76 -72 -87 -104 -8 -24 -25
-68 -37 -98 -19 -49 -20 -53 -3 -39 10 9 52 43 93 76 71 57 76 64 98 133 13
39 26 70 28 67 3 -3 -5 -58 -17 -122 l-22 -118 39 -136 38 -136 22 135 22 135
-28 135 c-15 74 -27 136 -26 138 2 1 35 -51 75 -117 l71 -120 127 -88 c70 -48
131 -90 136 -91 4 -2 -30 55 -76 127 -82 129 -85 133 -193 212 -60 44 -113 84
-118 89 -4 4 54 -9 130 -31 l139 -39 140 8 140 7 -127 49 -128 49 -142 -11
c-79 -6 -144 -10 -145 -8 -2 1 41 15 95 30 92 26 102 31 170 93 40 36 71 68
68 70 -3 3 -48 -8 -101 -24 -87 -25 -105 -35 -171 -91 -41 -35 -74 -59 -74
-54 0 5 7 15 16 23 24 20 41 60 49 117 4 28 5 52 3 52 -1 0 -20 -26 -40 -59z"/>
<path d="M6928 8883 c-18 -21 -31 -43 -25 -43 2 0 13 14 25 30 25 33 24 41 0
13z"/>
<path d="M5890 8824 c0 -5 20 -27 45 -47 25 -21 45 -36 45 -35 0 2 -20 24 -45
48 -25 24 -45 40 -45 34z"/>
<path d="M11320 8550 c0 -5 7 -10 16 -10 8 0 12 5 9 10 -3 6 -10 10 -16 10 -5
0 -9 -4 -9 -10z"/>
<path d="M1500 8540 c0 -5 4 -10 9 -10 6 0 13 5 16 10 3 6 -1 10 -9 10 -9 0
-16 -4 -16 -10z"/>
<path d="M11280 8520 c0 -5 -6 -7 -14 -4 -10 4 -13 0 -11 -13 2 -10 4 -21 4
-25 2 -13 31 4 41 22 7 13 6 20 -5 24 -8 3 -15 1 -15 -4z"/>
<path d="M1547 8513 c-12 -11 -8 -25 5 -17 8 5 9 2 4 -11 -5 -15 -4 -16 9 -5
11 9 15 9 15 1 0 -8 4 -8 14 1 13 11 13 15 -2 26 -18 13 -35 16 -45 5z"/>
<path d="M1670 8457 l0 -27 -27 17 -28 17 23 -25 22 -26 -32 4 c-32 4 -32 3
-10 -10 12 -7 19 -17 15 -21 -4 -5 3 -5 17 -1 14 4 27 12 28 16 2 5 9 9 16 9
6 0 12 10 13 21 1 12 -1 18 -5 15 -3 -4 -12 4 -19 16 l-12 23 -1 -28z"/>
<path d="M11160 8458 c-5 -13 -9 -17 -9 -10 -1 6 -5 12 -11 12 -12 0 -1 -29
20 -49 19 -19 55 -28 45 -12 -3 7 3 11 15 11 12 0 18 4 15 10 -4 6 -16 8 -28
4 -21 -6 -21 -5 3 21 25 28 11 26 -23 -4 -17 -15 -18 -14 -12 12 9 33 -2 36
-15 5z"/>
<path d="M1810 8375 c0 -13 -4 -14 -21 -5 -11 6 -25 9 -32 7 -7 -2 3 -11 21
-21 34 -18 43 -31 15 -22 -10 3 -31 2 -48 -3 -28 -9 -26 -9 19 -10 l49 -1 -27
-21 c-33 -26 -26 -38 9 -15 23 15 25 15 25 -1 1 -15 3 -14 13 5 7 12 17 19 22
15 5 -4 4 -1 -3 8 -7 9 -9 25 -5 34 4 13 3 16 -5 11 -7 -4 -12 -1 -12 8 0 8
-4 18 -10 21 -5 3 -10 -1 -10 -10z"/>
<path d="M11052 8345 c4 -34 4 -34 -17 -16 -35 31 -49 36 -36 13 6 -11 16 -23
23 -25 7 -3 2 -6 -12 -7 l-25 -1 24 -13 c27 -15 80 -14 108 3 17 10 17 10 0
11 -16 0 -16 2 -1 25 22 33 1 32 -25 -1 l-21 -27 0 37 c0 20 -5 36 -11 36 -7
0 -10 -14 -7 -35z"/>
<path d="M1903 8324 c-10 -10 -10 -14 0 -18 9 -3 8 -7 -3 -15 -12 -8 -10 -10
8 -8 23 1 49 33 38 45 -12 11 -31 10 -43 -4z"/>
<path d="M6710 8242 c14 -85 23 -109 63 -175 26 -42 44 -77 42 -77 -3 0 -36
24 -74 53 -45 35 -95 63 -146 81 -42 15 -79 25 -81 23 -3 -2 24 -29 59 -59 49
-44 79 -61 142 -82 l80 -27 -63 5 c-50 3 -75 -1 -119 -19 -31 -12 -51 -25 -46
-28 5 -4 39 -7 74 -7 59 -1 91 4 143 26 11 4 1 -11 -22 -34 -53 -53 -54 -70
-2 -36 22 15 40 30 40 33 0 4 9 17 20 29 18 20 23 20 58 8 23 -8 53 -11 77 -7
l40 7 -34 12 c-19 7 -46 12 -60 13 -19 0 -11 6 29 20 48 17 140 89 140 110 0
4 -30 -2 -67 -13 -47 -14 -80 -31 -107 -56 l-38 -37 45 70 c38 59 47 82 56
149 6 43 10 81 8 82 -2 2 -24 -29 -49 -69 -35 -54 -50 -92 -62 -151 -9 -44
-18 -81 -20 -83 -2 -2 -9 34 -16 81 -10 74 -18 95 -61 162 -27 43 -52 81 -57
86 -4 4 -1 -36 8 -90z"/>
<path d="M10860 8284 c0 -12 12 -43 26 -69 l25 -48 -33 25 c-29 21 -117 53
-125 44 -7 -7 79 -57 107 -63 46 -9 36 -23 -17 -23 -27 -1 -61 -7 -78 -15 -29
-15 -29 -15 30 -11 33 2 69 7 80 11 17 6 17 5 -2 -9 -26 -19 -48 -56 -34 -56
5 0 23 13 40 29 28 26 31 27 31 9 0 -10 5 -16 10 -13 6 3 10 19 10 36 0 16 4
29 8 29 5 0 17 7 28 16 18 14 18 15 -6 8 -20 -6 -23 -4 -14 7 11 14 27 79 19
79 -2 0 -16 -17 -30 -37 -23 -35 -25 -36 -25 -13 -1 14 -12 39 -25 55 -22 27
-25 28 -25 9z"/>
<path d="M1962 8258 c5 -12 -2 -14 -43 -10 -27 2 -49 2 -49 -1 0 -4 21 -13 48
-21 36 -11 41 -15 20 -15 -25 -1 -98 -37 -98 -48 0 -10 75 9 115 29 l40 20
-27 -28 c-23 -25 -63 -114 -52 -114 12 0 64 69 69 92 9 37 25 46 25 13 0 -21
34 -105 43 -105 9 0 -8 89 -21 110 l-16 25 25 -21 c13 -12 35 -25 49 -28 24
-7 23 -6 -8 23 -18 17 -28 31 -22 31 5 0 10 5 10 11 0 7 -12 9 -31 7 -20 -3
-34 1 -42 12 -18 24 -42 37 -35 18z"/>
<path d="M11004 8230 c4 -31 49 -41 60 -14 4 11 2 15 -8 11 -9 -4 -17 1 -19
11 -4 14 -5 14 -6 -2 -1 -20 -1 -20 -16 0 -14 18 -15 18 -11 -6z"/>
<path d="M10685 8189 c7 -20 6 -20 -22 -3 l-28 18 23 -26 23 -25 -28 3 c-15 2
-21 1 -13 -2 8 -4 17 -11 20 -15 9 -13 54 15 58 35 3 11 0 16 -7 12 -6 -4 -11
0 -11 8 0 9 -5 16 -11 16 -6 0 -8 -9 -4 -21z"/>
<path d="M2200 8143 c-25 -13 -25 -13 -2 -13 22 0 22 -1 6 -25 -22 -33 -9 -32
22 3 23 24 26 25 24 7 -4 -36 0 -55 11 -55 7 0 10 13 7 34 l-4 33 33 -25 32
-26 -34 -42 c-19 -22 -39 -62 -46 -88 -13 -54 -18 -53 -29 6 -5 24 -20 64 -34
88 l-26 45 0 -50 c0 -37 6 -60 25 -87 34 -50 31 -56 -10 -19 -20 17 -42 31
-50 31 -7 0 -22 3 -32 7 -34 12 29 -48 72 -69 22 -10 32 -16 23 -14 -10 3 -28
1 -40 -4 -18 -7 -12 -9 30 -9 47 -1 57 -5 79 -31 30 -36 52 -40 29 -6 -16 25
-16 25 13 15 16 -6 49 -9 72 -7 l44 3 -39 18 c-21 9 -53 18 -70 18 -28 1 -26
3 14 12 40 9 159 77 135 77 -30 0 -122 -32 -163 -56 l-47 -28 36 45 c20 24 41
66 48 92 12 51 8 64 -28 95 -13 10 -11 12 10 12 22 1 23 1 5 12 -28 16 -87 17
-116 1z"/>
<path d="M6274 8067 l-102 -72 -67 -123 c-37 -67 -69 -121 -71 -119 -2 1 10
45 26 96 l29 94 -24 96 c-12 53 -26 89 -29 81 -3 -8 -17 -54 -30 -101 -23 -83
-23 -90 -9 -169 15 -88 12 -113 -7 -56 -7 21 -31 52 -61 77 -27 22 -49 38 -49
35 0 -25 66 -129 97 -154 l38 -30 -30 -7 c-74 -17 -107 -27 -103 -30 2 -2 31
2 63 10 33 7 61 12 62 11 2 -2 -10 -27 -27 -57 -23 -43 -30 -66 -30 -114 l0
-59 35 54 c27 43 35 66 36 105 1 45 3 41 19 -47 18 -93 22 -101 81 -178 34
-44 64 -79 65 -77 5 5 -25 207 -33 220 -3 7 -29 38 -56 70 -27 31 -46 57 -42
57 4 0 49 -38 100 -85 89 -79 99 -85 182 -110 48 -15 108 -33 132 -41 25 -7
46 -12 48 -10 2 2 -41 41 -96 87 -94 78 -110 88 -238 137 l-138 53 145 -6 145
-6 154 59 153 59 -158 5 -158 6 -138 -49 c-76 -27 -138 -47 -138 -44 0 2 46
42 102 90 97 83 150 151 229 298 15 27 0 20 -107 -56z"/>
<path d="M10581 8084 c-19 -12 -42 -36 -53 -51 -10 -15 -18 -21 -17 -13 1 8 1
24 0 35 -2 19 -2 19 -12 2 -6 -10 -8 -30 -5 -43 6 -21 2 -27 -28 -39 -33 -14
-53 -32 -44 -40 2 -2 17 2 32 10 l28 15 -16 -25 c-9 -13 -16 -43 -16 -67 l0
-43 24 36 c13 19 26 49 28 65 4 27 4 27 12 -11 7 -35 72 -132 82 -123 9 10
-23 98 -48 129 -39 51 -35 55 16 20 25 -17 72 -37 106 -45 58 -14 64 -13 93 5
30 18 32 18 39 1 6 -15 8 -14 14 5 3 13 9 21 13 19 3 -2 6 9 7 25 1 15 -2 26
-6 24 -4 -3 -11 5 -15 18 -6 18 -8 19 -12 5 -4 -16 -6 -16 -29 -1 -34 22 -41
10 -8 -16 l27 -21 -43 0 c-49 0 -47 -10 3 -19 l34 -6 -27 -22 -26 -21 -53 33
c-29 19 -69 36 -90 40 -63 10 -72 25 -15 25 49 0 139 24 159 41 19 18 -104 9
-151 -11 -53 -23 -72 -20 -25 4 26 14 69 72 59 81 -2 2 -18 -8 -37 -21z"/>
<path d="M1985 8040 c3 -6 -4 -10 -16 -10 -33 0 -18 -9 19 -12 19 -1 31 -7 28
-14 -2 -6 0 -17 5 -25 7 -11 9 -8 9 9 0 13 4 20 10 17 15 -9 12 0 -9 23 -18
22 -58 32 -46 12z"/>
<path d="M1977 7996 c-4 -10 -1 -13 9 -9 15 6 19 23 5 23 -5 0 -11 -7 -14 -14z"/>
<path d="M10284 7971 c4 -7 -1 -11 -13 -11 -28 0 -37 -20 -9 -21 13 0 17 -3
10 -6 -7 -2 -17 -14 -23 -25 -13 -24 1 -18 37 14 l22 19 -5 -48 c-4 -38 -3
-45 7 -36 7 6 12 28 12 48 l0 37 29 -34 c29 -34 40 -28 14 8 -13 20 -13 21 13
17 l27 -3 -28 13 c-15 7 -24 17 -20 21 5 5 -2 5 -14 2 -12 -4 -32 -2 -44 4
-15 8 -19 9 -15 1z"/>
<path d="M2600 7918 c0 -17 8 -41 17 -52 10 -12 4 -9 -12 6 -17 14 -54 36 -84
47 l-54 20 29 -31 c16 -17 52 -41 79 -55 l50 -24 -48 5 c-45 3 -114 -6 -147
-21 -23 -11 90 -19 134 -10 57 12 66 3 21 -21 -22 -11 -52 -36 -68 -56 l-27
-35 37 15 c21 8 55 34 76 57 35 38 37 39 25 12 -9 -18 -12 -42 -8 -60 l6 -30
16 31 c10 18 14 41 11 55 l-6 24 28 -25 28 -25 -23 42 c-16 30 -20 46 -13 55
15 19 23 48 14 48 -4 0 -13 -10 -19 -22 l-11 -23 0 23 c-1 26 -30 82 -43 82
-4 0 -8 -14 -8 -32z"/>
<path d="M6841 7945 c0 -5 6 -21 14 -35 8 -14 14 -20 14 -15 0 6 -6 21 -14 35
-8 14 -14 21 -14 15z"/>
<path d="M10080 7854 c0 -13 24 -50 44 -67 18 -15 15 -15 -21 2 -25 13 -61 21
-90 21 l-48 -1 39 -20 c21 -12 64 -23 94 -26 41 -5 51 -8 37 -14 -11 -4 -33
-8 -49 -8 -23 -1 -136 -55 -136 -65 0 -10 132 25 163 44 40 24 50 15 16 -16
-20 -18 -63 -103 -56 -110 9 -9 68 65 81 101 l15 40 1 -40 c0 -22 7 -49 15
-59 14 -19 15 -18 16 10 2 37 2 35 -7 58 -6 16 -4 17 14 7 37 -19 38 -11 3 19
-25 21 -32 34 -28 50 3 12 3 29 0 37 -5 12 -9 10 -19 -8 -7 -13 -13 -18 -14
-11 0 23 -70 79 -70 56z"/>
<path d="M10395 7784 c-3 -25 -4 -64 0 -87 6 -45 7 -46 -38 13 -17 22 -87 72
-87 63 0 -21 44 -76 76 -95 36 -21 41 -38 6 -19 -12 6 -40 11 -64 10 l-43 -1
30 -13 c17 -8 46 -14 65 -15 l35 0 -25 -20 c-31 -24 -20 -26 26 -4 31 15 37
15 68 0 45 -21 56 -20 27 4 l-23 20 33 0 c19 1 48 7 64 15 29 14 28 15 -32 12
l-62 -3 28 17 c25 15 71 75 71 93 0 15 -82 -50 -101 -81 -26 -41 -34 -37 -21
10 10 35 -4 127 -19 127 -3 0 -10 -21 -14 -46z"/>
<path d="M2286 7772 c-4 -12 -11 -20 -15 -17 -5 2 -8 -9 -7 -25 1 -17 4 -30 7
-30 4 0 10 -10 14 -22 6 -19 8 -20 12 -6 4 16 7 17 36 2 l32 -15 -34 32 -34
31 30 -6 c16 -4 40 -2 54 3 20 8 15 10 -31 10 l-55 1 31 19 c37 23 54 44 27
34 -10 -3 -26 -12 -35 -20 -15 -13 -17 -12 -20 9 l-4 23 -8 -23z"/>
<path d="M2883 7766 c15 -14 27 -26 25 -26 -2 0 -17 4 -35 9 -19 6 -49 5 -79
-2 l-49 -10 50 -13 c27 -7 61 -11 75 -9 22 5 22 4 -5 -9 -16 -9 -35 -15 -40
-16 -11 0 -104 -90 -93 -90 22 0 124 56 158 86 47 42 49 39 14 -21 -20 -36
-24 -54 -22 -101 l3 -58 28 51 c19 37 27 65 27 102 0 28 4 51 8 51 4 0 16 -21
25 -47 15 -40 76 -123 91 -123 2 0 -2 21 -10 47 -8 28 -30 63 -51 85 -40 41
-37 49 5 19 24 -16 112 -38 112 -27 0 10 -91 56 -112 57 -22 1 -22 2 5 12 42
17 32 25 -20 16 -39 -8 -50 -6 -67 10 -12 10 -32 22 -46 25 l-25 7 28 -25z"/>
<path d="M6685 7700 c17 -18 44 -39 60 -47 l30 -14 -43 6 c-56 7 -182 -25
-142 -36 39 -11 111 -10 153 2 54 15 56 6 4 -24 -26 -16 -58 -48 -80 -81 -21
-31 -35 -56 -32 -56 21 0 124 85 145 119 14 23 27 41 31 41 3 0 -1 -25 -8 -57
-10 -37 -13 -75 -8 -112 l7 -56 20 50 c14 38 18 65 14 110 -4 51 -4 56 6 30
11 -31 68 -98 76 -90 8 8 -21 69 -45 96 l-23 26 32 -5 c31 -4 32 -3 13 11 -11
8 -32 17 -45 19 -18 2 -26 11 -31 37 -4 18 -14 40 -22 49 -14 13 -15 11 -7
-23 l8 -37 -26 25 c-15 14 -38 28 -52 32 -68 19 -67 19 -35 -15z"/>
<path d="M9680 7666 c-6 -21 -9 -49 -5 -63 l6 -25 -25 28 c-31 35 -34 17 -4
-21 17 -22 19 -31 10 -46 -7 -10 -12 -28 -12 -40 0 -21 0 -21 20 2 l19 24 1
-25 c0 -14 12 -38 25 -55 l25 -30 0 35 c0 20 -7 47 -17 60 -16 24 -15 24 13
-2 26 -24 122 -63 131 -54 8 8 -75 64 -112 77 l-40 14 70 6 c39 4 88 13 110
21 l40 13 -65 3 c-36 2 -85 -2 -109 -8 -55 -14 -61 -8 -19 18 31 19 107 102
93 102 -24 0 -90 -47 -111 -80 -27 -41 -45 -49 -25 -12 13 25 14 62 2 81 -6
10 -12 3 -21 -23z"/>
<path d="M2549 7645 c-19 -19 -34 -25 -69 -25 -44 -1 -44 -1 -20 -15 16 -9 19
-14 9 -15 -13 0 -81 -60 -67 -60 20 0 76 27 91 44 15 17 15 14 -3 -16 -15 -26
-20 -50 -18 -80 l3 -43 23 42 c12 23 22 58 22 78 0 43 16 38 25 -8 7 -28 85
-129 85 -109 0 27 -35 103 -56 122 -38 36 -29 43 24 17 45 -23 122 -44 122
-33 0 12 -89 56 -116 57 l-29 1 30 7 c17 4 44 15 60 25 l30 17 -50 -4 c-27 -3
-59 -8 -70 -13 -18 -7 -19 -6 -6 9 23 28 6 30 -20 2z"/>
<path d="M3360 7590 c0 -3 -7 -63 -14 -134 l-14 -129 43 -128 c24 -71 41 -129
37 -128 -4 0 -45 49 -92 109 l-84 109 -151 80 c-82 44 -152 78 -153 76 -2 -2
40 -56 95 -120 97 -115 100 -118 231 -192 74 -41 132 -76 130 -78 -2 -1 -70
10 -151 25 -147 28 -150 28 -294 15 -79 -8 -147 -15 -149 -18 -2 -2 59 -20
135 -41 l139 -37 155 18 c86 11 154 17 151 14 -3 -3 -49 -19 -103 -36 -94 -28
-103 -34 -175 -102 -42 -40 -73 -73 -69 -73 5 0 56 16 114 35 95 32 115 43
183 101 42 36 76 61 76 56 0 -5 -7 -15 -16 -23 -27 -22 -44 -67 -44 -116 l0
-48 40 60 c30 46 40 70 40 101 0 36 4 43 28 52 15 6 48 13 74 16 42 5 168 58
168 71 0 2 -30 2 -67 -2 -49 -4 -84 -14 -123 -36 l-55 -30 45 39 c112 97 127
116 159 207 35 99 38 99 -76 8 -79 -63 -80 -64 -107 -148 -15 -47 -29 -83 -31
-81 -2 2 4 60 14 128 l19 125 -54 130 c-29 72 -54 128 -54 125z"/>
<path d="M10150 7576 c0 -23 56 -109 85 -132 46 -35 38 -41 -17 -13 -37 19
-183 43 -197 33 -11 -9 124 -57 179 -63 l65 -7 -40 -12 c-22 -7 -46 -12 -54
-12 -12 0 -121 -58 -121 -64 0 -11 123 20 159 40 54 30 64 30 30 1 -23 -20
-55 -85 -45 -94 6 -7 76 77 76 91 0 8 5 18 12 22 7 5 9 2 6 -7 -3 -8 0 -26 8
-40 l13 -24 1 28 c0 16 -4 37 -10 47 -8 15 -3 23 25 44 34 26 45 46 25 46 -5
0 -18 -10 -30 -22 -22 -24 -26 -18 -9 14 7 12 8 38 4 67 l-7 46 -20 -38 c-13
-26 -17 -49 -14 -70 6 -29 4 -28 -16 12 -20 38 -108 126 -108 107z"/>
<path d="M9462 7448 l-52 -113 14 -135 c8 -74 13 -136 11 -138 -1 -2 -18 40
-36 93 -34 96 -34 97 -113 161 -43 36 -80 63 -82 61 -2 -2 13 -44 32 -94 31
-81 43 -99 104 -157 37 -36 66 -66 63 -66 -2 0 -23 11 -46 24 -26 15 -66 26
-107 30 l-65 6 35 -21 c61 -38 114 -59 151 -59 52 0 68 -17 76 -80 6 -53 56
-149 77 -150 4 0 5 26 1 58 -4 40 -15 70 -38 102 -30 43 -27 41 50 -28 77 -69
88 -76 189 -108 58 -19 108 -33 110 -31 2 2 -33 40 -79 84 -80 78 -84 81 -170
103 -48 13 -85 25 -83 27 2 3 67 -5 143 -17 l139 -21 148 35 c82 19 150 37
152 39 3 2 -64 12 -149 22 l-154 18 -146 -27 c-80 -14 -149 -26 -154 -25 -4 0
53 31 127 68 l135 68 106 124 c59 68 106 125 104 127 -1 1 -69 -32 -150 -75
-142 -75 -150 -81 -233 -173 -47 -52 -94 -104 -104 -115 -13 -14 -6 16 26 112
l44 131 -5 126 c-3 69 -9 126 -13 126 -3 0 -30 -51 -58 -112z"/>
<path d="M3180 7521 c0 -12 7 -33 17 -47 l16 -25 -36 21 c-20 12 -42 20 -49
18 -8 -3 0 -11 17 -21 l30 -16 -25 -10 c-25 -10 -24 -10 8 -10 17 -1 32 -6 32
-13 0 -6 8 -4 19 6 10 9 25 14 35 10 9 -4 16 -1 16 6 0 7 8 19 18 27 16 13 15
14 -6 9 -16 -3 -22 0 -19 7 2 7 7 23 11 37 l7 25 -20 -24 c-12 -13 -21 -33
-21 -45 -1 -16 -6 -11 -20 18 -25 50 -30 54 -30 27z"/>
<path d="M2740 7367 c0 -39 7 -71 20 -97 24 -48 14 -51 -26 -9 -26 27 -111 79
-131 79 -16 0 65 -74 107 -96 25 -14 34 -22 20 -18 -34 9 -91 7 -103 -5 -12
-12 72 -25 105 -16 l23 6 -25 -20 c-37 -30 -18 -35 24 -6 30 20 41 23 57 14
11 -5 32 -9 47 -7 26 4 26 4 -8 15 l-35 11 30 1 c17 1 48 13 70 27 l40 26 -49
-6 c-27 -3 -55 -11 -63 -17 -7 -7 -16 -9 -19 -7 -3 3 8 15 24 26 16 12 34 38
41 59 7 21 15 45 18 53 14 37 -72 -60 -93 -105 l-23 -50 -1 55 c-1 37 -9 69
-25 100 l-24 45 -1 -58z"/>
<path d="M6440 7396 c0 -10 7 -62 16 -115 14 -82 23 -108 67 -181 27 -47 52
-89 55 -94 6 -11 -29 13 -112 78 -32 25 -82 53 -110 62 -28 9 -73 25 -101 35
l-50 19 78 -73 c73 -68 84 -75 170 -102 88 -28 140 -52 87 -41 -93 19 -128 16
-201 -12 -72 -29 -72 -29 -38 -35 56 -11 142 -9 177 2 103 34 112 35 59 3 -28
-16 -87 -92 -72 -92 15 0 93 66 109 92 l20 31 23 -49 c12 -27 23 -43 23 -36 0
7 -7 27 -16 43 -19 38 -14 44 27 30 38 -13 116 -15 123 -2 8 12 -48 31 -93 32
-34 1 -32 2 26 22 47 16 76 36 117 76 31 30 54 56 53 58 -2 1 -37 -7 -78 -18
-62 -18 -83 -29 -128 -72 l-54 -52 57 84 c53 79 57 88 71 183 9 56 14 102 12
104 -2 2 -28 -35 -59 -84 -48 -76 -57 -99 -73 -184 -10 -53 -22 -95 -26 -93
-3 3 -10 39 -14 81 -4 41 -10 88 -15 102 -11 40 -130 220 -130 198z"/>
<path d="M9117 7319 c5 -19 4 -20 -16 -10 -12 7 -30 11 -39 9 -12 -2 -5 -9 21
-21 44 -21 46 -26 10 -25 -16 0 -39 -5 -53 -11 -21 -9 -16 -11 35 -8 59 2 60
2 66 -28 l6 -30 7 27 c5 17 13 25 20 21 6 -4 5 1 -2 10 -8 9 -11 25 -7 36 5
16 3 19 -8 15 -10 -3 -18 2 -22 15 -8 28 -25 27 -18 0z"/>
<path d="M6055 7230 c-8 -16 -15 -40 -15 -55 0 -14 -4 -25 -10 -25 -5 0 -10 6
-10 13 0 7 -7 22 -16 33 -15 18 -15 18 -11 -6 2 -14 8 -33 12 -43 6 -14 3 -16
-11 -11 -18 5 -18 5 0 -10 11 -9 23 -16 28 -16 4 0 8 -11 8 -24 0 -14 5 -28
10 -31 6 -3 10 1 10 10 0 15 2 15 22 1 37 -26 55 -20 28 9 l-23 25 34 1 c19 1
45 4 59 8 24 7 23 8 -11 14 -19 4 -51 5 -70 2 l-34 -6 31 18 c30 17 93 83 80
83 -12 0 -61 -33 -95 -64 -31 -29 -33 -29 -20 -6 12 23 30 110 23 110 -2 0
-10 -13 -19 -30z"/>
<path d="M9961 7241 c-12 -12 -21 -27 -21 -33 0 -7 12 0 27 14 15 15 24 30 21
34 -4 3 -16 -4 -27 -15z"/>
<path d="M9089 7218 c-13 -17 -17 -28 -8 -23 24 14 49 38 49 47 0 18 -20 7
-41 -24z"/>
<path d="M9920 7240 c-1 -8 -2 -21 -1 -29 2 -7 -2 -10 -8 -6 -6 3 -11 1 -11
-4 0 -6 5 -11 11 -11 5 0 9 -8 7 -18 -2 -11 1 -19 6 -20 5 0 13 -7 18 -16 14
-24 30 -19 23 7 -6 18 -5 20 6 10 7 -7 24 -13 38 -13 24 0 24 1 5 15 -10 8
-30 15 -44 16 -23 1 -23 2 5 9 17 4 41 13 55 19 23 10 21 11 -15 7 -22 -2 -49
-6 -60 -8 -15 -2 -21 4 -26 27 -4 17 -8 23 -9 15z"/>
<path d="M4016 7194 c-22 -8 -47 -21 -56 -29 -21 -19 -44 -19 -73 -1 -12 7
-42 16 -67 20 -42 6 -44 5 -25 -10 11 -8 32 -18 48 -21 43 -9 31 -23 -20 -23
-35 0 -62 -8 -100 -30 -29 -17 -53 -31 -53 -33 0 -1 35 0 77 3 57 4 88 12 116
29 54 34 45 22 -23 -29 -48 -37 -65 -57 -91 -113 -17 -38 -29 -70 -27 -72 10
-10 134 118 164 170 l35 60 -7 -65 c-3 -36 -7 -70 -7 -76 -1 -16 55 -165 60
-160 3 2 9 38 14 78 8 67 7 81 -16 148 -14 40 -23 75 -21 77 2 2 27 -23 55
-56 43 -50 129 -111 194 -140 5 -2 -12 25 -37 59 -37 51 -60 71 -123 106 -43
24 -75 44 -72 44 3 0 31 -9 62 -19 41 -15 71 -18 112 -14 31 3 57 9 60 13 8
14 -134 42 -182 36 -43 -5 -45 -4 -23 7 35 17 75 46 69 51 -2 2 -22 -3 -43
-10z"/>
<path d="M8912 7102 l-2 -53 -42 34 c-35 28 -109 57 -145 57 -20 0 76 -66 111
-77 37 -11 33 -12 -46 -6 -79 5 -96 2 -168 -23 -47 -16 -75 -31 -68 -35 6 -4
52 -10 102 -14 82 -6 97 -4 154 19 34 13 62 23 62 21 0 -2 -44 -28 -98 -56
-90 -49 -103 -59 -157 -132 -83 -110 -85 -114 -44 -90 19 11 67 39 107 62 54
31 90 63 144 126 40 46 74 82 76 81 1 -2 -14 -47 -34 -100 l-36 -97 17 -122
c10 -67 19 -123 20 -125 2 -2 20 48 41 110 l37 113 -10 110 c-6 61 -10 111 -8
113 1 2 27 -38 56 -88 43 -75 68 -105 136 -163 47 -40 88 -73 93 -75 5 -2 -10
38 -35 90 -42 89 -48 96 -135 166 -50 39 -89 72 -85 72 3 0 36 -15 73 -34 55
-28 83 -35 160 -41 50 -4 92 -4 92 -1 0 4 -35 24 -77 44 -58 27 -101 39 -168
48 -51 6 -73 12 -51 13 33 1 142 48 133 57 -9 9 -124 -18 -154 -36 -19 -11
-36 -20 -38 -20 -2 0 -6 24 -8 53 l-3 52 -2 -53z"/>
<path d="M3440 7026 c0 -2 19 -16 42 -32 60 -41 68 -46 68 -40 0 6 -96 76
-104 76 -3 0 -6 -2 -6 -4z"/>
<path d="M9372 6979 c-59 -56 -49 -58 13 -3 28 24 46 44 40 44 -5 0 -29 -19
-53 -41z"/>
<path d="M3493 6846 c-29 -49 -43 -86 -44 -112 -1 -21 -5 -52 -9 -69 l-8 -30
-1 27 c-1 24 -67 115 -77 105 -9 -9 30 -108 51 -127 32 -30 31 -47 0 -72 -30
-23 -50 -60 -60 -108 l-7 -35 38 37 c21 21 44 55 51 75 12 36 12 34 8 -37 -4
-72 -3 -76 38 -150 l42 -75 7 45 c14 93 9 134 -20 181 -15 24 -31 50 -36 57
-17 29 5 7 71 -70 67 -79 75 -85 182 -135 61 -28 111 -49 111 -46 0 2 -33 40
-72 84 -62 67 -89 88 -180 136 -59 31 -106 58 -104 60 2 2 56 -8 121 -22 l119
-26 140 22 c78 11 142 22 144 24 2 1 -59 14 -135 28 -134 26 -141 26 -243 12
-58 -8 -114 -14 -125 -14 -11 0 31 26 94 58 88 46 129 74 182 127 38 37 67 69
66 71 -2 1 -51 -16 -110 -38 -100 -39 -110 -46 -183 -120 -42 -44 -78 -79 -80
-79 -2 0 15 29 37 64 39 62 40 65 37 144 l-3 81 -42 -73z"/>
<path d="M4330 6895 c0 -38 41 -128 78 -173 24 -29 43 -55 40 -57 -2 -2 -30
13 -63 34 -44 28 -83 42 -145 54 -47 10 -89 17 -95 17 -5 0 22 -19 60 -42 43
-25 103 -50 155 -63 l85 -22 -60 -7 c-70 -8 -144 -28 -200 -56 l-40 -19 85 6
c57 4 103 14 139 30 61 26 79 24 31 -4 -26 -15 -80 -95 -80 -118 0 -15 98 71
117 102 l22 36 -1 -32 c-1 -17 4 -37 10 -43 13 -13 14 -5 16 72 1 27 7 37 26
47 30 14 78 63 63 63 -6 0 -27 -11 -47 -25 l-36 -25 20 41 c15 29 20 55 18 92
l-3 52 -32 -52 c-26 -41 -31 -59 -27 -90 3 -30 2 -34 -5 -18 -6 11 -15 38 -21
60 -9 35 -110 164 -110 140z"/>
<path d="M6132 6803 c-9 -42 -9 -60 3 -94 18 -50 13 -63 -9 -21 -8 16 -31 39
-51 51 l-35 20 16 -31 c9 -17 29 -43 45 -58 l30 -27 -33 5 c-26 3 -30 2 -21
-8 6 -7 26 -13 44 -15 20 -1 37 -10 43 -21 27 -50 38 -65 43 -60 3 2 -2 19
-10 36 l-16 30 28 -19 c16 -11 48 -23 72 -27 l44 -6 -30 26 c-16 14 -43 30
-60 35 -28 9 -26 9 20 11 32 0 67 10 95 25 l45 24 -55 0 c-34 0 -72 -7 -99
-19 -62 -29 -69 -25 -23 13 34 28 100 133 89 143 -10 10 -91 -74 -113 -117
-13 -27 -26 -49 -27 -49 -2 0 -2 26 0 58 2 31 -2 77 -10 102 l-14 45 -11 -52z"/>
<path d="M9450 6768 c0 -50 5 -67 25 -94 42 -55 28 -50 -27 9 -52 54 -66 62
-213 116 -5 2 13 -20 40 -49 35 -36 78 -65 140 -96 98 -48 98 -49 -8 -33 -60
10 -88 8 -169 -6 -54 -10 -98 -21 -98 -25 0 -3 42 -11 93 -17 72 -9 107 -8
162 3 108 21 116 17 45 -21 -55 -30 -196 -152 -186 -162 1 -2 34 11 72 27 52
23 84 47 127 93 l58 62 -25 -50 c-21 -43 -23 -59 -17 -105 l7 -55 27 59 c16
35 27 77 28 105 0 41 1 43 10 21 12 -28 38 -60 51 -60 12 0 -21 73 -37 83 -20
11 -19 33 5 65 10 15 22 41 26 57 l7 30 -27 -24 c-14 -14 -26 -33 -26 -43 0
-11 -4 -16 -10 -13 -5 3 -10 25 -10 47 0 29 -9 56 -31 90 -17 26 -33 48 -35
48 -2 0 -4 -28 -4 -62z"/>
<path d="M3175 6800 c-4 -7 -19 -10 -36 -6 -16 3 -28 1 -26 -4 1 -5 -7 -16
-18 -25 -20 -16 -19 -16 7 -11 l26 6 -15 -31 c-22 -45 -7 -48 19 -3 l22 38 7
-33 c9 -44 33 -68 27 -26 -3 17 -9 39 -13 49 -7 17 -5 17 22 -4 17 -12 37 -20
45 -18 8 3 0 13 -22 26 l-35 22 30 1 c27 2 28 2 5 6 -14 3 -28 10 -31 15 -4 6
-9 6 -14 -2z"/>
<path d="M8445 6664 c-63 -27 -91 -46 -132 -92 -52 -56 -68 -64 -37 -18 10 16
14 41 12 73 l-3 48 -28 -53 c-22 -42 -26 -60 -21 -89 6 -31 5 -35 -10 -30 -10
4 -15 3 -11 -3 3 -5 -7 -12 -22 -16 -63 -13 -91 -26 -124 -53 l-34 -29 54 10
c30 5 70 21 90 36 l36 26 -25 -29 c-13 -17 -39 -46 -56 -65 -21 -24 -35 -53
-43 -95 -7 -33 -15 -69 -18 -80 -3 -12 23 8 65 49 64 63 71 74 77 120 13 95
24 84 25 -23 0 -102 0 -104 42 -180 72 -132 71 -132 64 -4 -5 108 -7 116 -51
202 -25 50 -45 94 -45 98 0 4 39 -31 88 -78 85 -84 90 -87 217 -137 l130 -51
-96 92 c-89 85 -103 95 -203 137 -59 24 -110 49 -113 54 -4 5 0 7 9 4 8 -4 64
-9 125 -13 86 -6 134 -4 214 10 57 10 110 21 117 25 14 7 -165 40 -218 40 -16
0 -78 -11 -137 -25 -58 -14 -108 -24 -109 -22 -2 2 32 18 76 36 68 28 88 43
131 93 29 32 50 60 48 63 -2 2 -40 -12 -84 -31z"/>
<path d="M6570 6650 c0 -5 10 -19 22 -30 l23 -21 -37 15 c-41 17 -104 21 -112
7 -7 -10 63 -40 97 -42 13 -1 7 -5 -18 -11 -34 -9 -140 -77 -132 -85 9 -9 118
31 155 57 23 16 45 30 48 30 3 0 -9 -18 -27 -41 -28 -36 -58 -122 -59 -169 0
-31 75 98 91 155 l16 60 8 -55 c4 -30 20 -80 36 -110 l28 -55 0 55 c0 41 -6
65 -24 95 -28 44 -34 73 -9 36 14 -19 90 -61 112 -61 13 0 -56 63 -88 80 l-35
19 33 1 c17 0 32 5 32 11 0 8 -15 10 -45 7 -41 -5 -46 -3 -70 28 -25 33 -45
44 -45 24z"/>
<path d="M3323 6593 c9 -2 23 -2 30 0 6 3 -1 5 -18 5 -16 0 -22 -2 -12 -5z"/>
<path d="M8131 6546 c10 -9 69 -36 69 -32 0 6 -55 36 -66 36 -4 0 -5 -2 -3 -4z"/>
<path d="M4078 6484 c-3 -5 -12 -50 -19 -101 l-13 -92 37 -93 c20 -51 37 -98
37 -103 0 -5 -20 20 -44 56 -38 57 -56 73 -120 108 -41 22 -78 41 -81 41 -3 0
15 -31 42 -69 38 -56 62 -78 118 -111 39 -23 59 -39 45 -35 -45 13 -118 17
-136 7 -13 -7 -6 -12 37 -23 30 -7 75 -12 100 -10 50 3 60 -4 78 -59 6 -20 29
-50 52 -69 39 -32 41 -33 34 -10 -3 13 -9 33 -12 44 -3 11 -20 33 -37 48 l-31
28 60 -32 c33 -18 65 -36 70 -40 8 -6 169 -29 200 -29 6 0 -28 25 -75 55 -77
50 -90 55 -142 55 -31 0 -60 5 -63 10 -4 6 30 10 94 10 99 0 100 0 215 53 66
29 108 53 98 55 -11 2 -68 -1 -128 -7 -92 -8 -127 -17 -223 -55 -63 -25 -108
-40 -100 -32 7 7 49 41 92 75 73 59 81 70 133 173 30 61 54 112 52 114 -2 1
-46 -33 -98 -76 -89 -74 -99 -86 -153 -187 l-57 -108 5 115 c6 112 5 118 -28
209 -19 52 -36 90 -39 85z"/>
<path d="M4616 6479 c3 -6 16 -14 28 -19 17 -7 14 -9 -19 -10 -22 0 -51 -7
-64 -14 -24 -13 -24 -13 12 -20 21 -4 46 -2 59 4 22 11 23 11 3 -5 -11 -9 -25
-19 -31 -23 -11 -8 -54 -75 -54 -86 0 -14 85 57 107 89 13 19 25 35 28 35 2 0
-1 -17 -7 -37 -13 -47 8 -158 24 -129 12 22 15 102 5 141 -7 30 -7 30 30 -11
36 -39 103 -91 103 -80 0 20 -49 79 -83 101 -23 14 -33 23 -22 19 11 -4 45 -9
75 -11 l55 -3 -34 15 c-18 8 -50 15 -70 15 l-36 1 28 15 c40 22 27 28 -19 9
-21 -8 -45 -13 -53 -9 -41 16 -71 22 -65 13z"/>
<path d="M6261 6398 c-10 -51 -10 -79 -2 -119 6 -28 10 -54 7 -56 -2 -2 -15
16 -29 40 -23 38 -104 117 -122 117 -17 0 55 -104 88 -127 42 -30 43 -41 0
-21 -17 9 -44 12 -68 8 l-40 -5 43 -18 c23 -9 57 -17 75 -18 28 0 29 -1 11 -9
-24 -10 -41 -30 -25 -30 6 0 26 8 45 17 33 15 37 15 69 -2 19 -10 40 -15 48
-13 9 4 2 11 -21 21 l-35 16 37 1 c36 0 108 27 108 40 0 14 -82 10 -112 -5
l-33 -17 30 26 c17 14 33 25 37 26 4 0 22 28 39 62 l31 61 -42 -33 c-38 -30
-54 -49 -108 -126 -12 -18 -13 -18 -7 1 14 43 15 132 2 180 l-14 50 -12 -67z"/>
<path d="M8830 6387 c0 -56 5 -78 30 -130 l31 -62 -38 41 c-31 34 -101 74
-129 74 -17 0 63 -78 99 -97 l42 -22 -48 -1 c-30 0 -46 -4 -42 -10 3 -5 35
-10 70 -10 61 0 65 -2 79 -29 14 -25 66 -70 66 -56 0 13 -24 50 -39 62 -9 7 4
4 29 -7 29 -13 67 -20 110 -20 l65 0 -63 30 c-35 17 -78 31 -95 31 -19 1 -6 5
30 10 42 6 82 21 123 45 33 20 59 39 56 41 -11 12 -150 -24 -211 -54 l-70 -35
51 54 c37 38 57 70 72 113 11 33 23 69 28 80 7 18 6 19 -11 5 -48 -39 -115
-134 -131 -185 -10 -30 -21 -55 -26 -55 -4 0 -8 28 -8 63 -1 51 -7 74 -35 127
l-34 65 -1 -68z"/>
<path d="M6560 6320 c-1 -14 -1 -34 0 -45 2 -20 2 -20 -19 -1 -28 25 -36 16
-11 -12 14 -14 16 -22 8 -22 -9 0 -9 -3 2 -9 8 -6 18 -7 22 -5 4 3 12 -6 18
-20 5 -14 12 -26 16 -26 3 0 4 7 0 15 -4 13 -2 13 14 5 10 -5 27 -10 37 -10
13 0 10 5 -12 20 l-30 20 26 0 c14 0 34 6 44 14 18 13 16 13 -21 7 -22 -4 -47
-11 -55 -16 -8 -5 -4 3 7 16 22 24 44 62 44 75 0 12 -33 -20 -52 -51 l-18 -30
-1 30 c0 17 -4 39 -9 50 -8 18 -9 18 -10 -5z"/>
<path d="M4821 6280 c-1 -3 10 -39 23 -80 18 -54 38 -91 75 -137 28 -34 51
-64 51 -67 0 -3 -33 15 -72 41 -64 41 -87 49 -186 69 -62 12 -110 18 -105 14
4 -4 43 -28 86 -53 58 -35 100 -52 169 -67 50 -11 93 -21 95 -23 2 -2 -38 -9
-89 -15 -61 -7 -122 -22 -178 -44 l-85 -33 88 -3 c83 -3 92 -1 177 37 50 22
90 38 90 36 0 -2 -22 -19 -50 -39 -33 -24 -58 -53 -75 -87 -15 -28 -25 -52
-23 -54 10 -10 120 87 142 125 20 33 26 38 23 20 -3 -14 1 -41 8 -60 l12 -35
7 41 c4 23 4 57 1 76 -6 33 -4 36 27 48 34 14 88 57 88 72 0 12 -52 -13 -84
-41 l-29 -26 27 51 c23 42 27 60 24 115 l-3 64 -37 -61 c-34 -55 -37 -67 -33
-110 l5 -49 -20 60 c-11 33 -20 65 -20 71 0 11 -129 154 -129 144z"/>
<path d="M6477 6113 c4 -42 15 -87 31 -118 l25 -50 -24 20 c-13 11 -34 28 -46
38 -12 11 -44 30 -72 43 -43 19 -50 20 -42 6 18 -32 66 -71 116 -92 l50 -21
-41 6 c-24 3 -58 -1 -80 -9 l-39 -14 38 -7 c21 -4 57 -4 80 -1 41 7 41 6 20
-9 -13 -9 -23 -21 -23 -26 0 -12 35 6 61 32 15 15 24 17 39 9 25 -13 81 -14
60 0 -8 5 -26 10 -40 11 -19 1 -13 5 21 15 25 8 57 26 70 40 l24 27 -40 -7
c-22 -4 -53 -17 -70 -29 l-30 -21 32 40 c28 36 61 129 50 141 -10 9 -69 -86
-85 -137 l-17 -55 -5 65 c-4 43 -15 83 -33 118 -15 28 -29 52 -32 52 -2 0 -2
-30 2 -67z"/>
<path d="M6220 6112 c-21 -29 -25 -31 -32 -15 -5 14 -7 11 -7 -11 -1 -17 -11
-41 -23 -54 -15 -16 -17 -23 -8 -20 12 5 15 -2 12 -36 -5 -45 6 -42 25 7 8 23
12 26 12 12 1 -12 14 -36 31 -55 l29 -35 -9 35 c-6 19 -20 48 -31 64 -12 16
-18 27 -13 24 42 -20 84 -36 109 -42 l30 -7 -25 21 c-14 11 -45 26 -70 34
l-45 14 30 7 c41 9 85 26 90 35 5 9 -76 -4 -94 -14 -8 -5 -7 1 4 17 26 40 12
56 -15 19z"/>
<path d="M8630 6104 c0 -19 5 -45 10 -57 8 -15 3 -13 -17 9 -25 28 -110 80
-118 72 -7 -7 60 -72 98 -95 l42 -24 -35 7 c-41 10 -157 7 -173 -3 -20 -12 98
-30 152 -23 28 3 51 5 51 3 0 -1 -21 -14 -47 -27 -27 -13 -61 -38 -78 -56
l-30 -32 45 18 c25 9 63 33 84 53 35 32 38 33 23 9 -9 -15 -17 -44 -17 -65 l0
-38 20 30 c11 17 20 44 20 60 l0 30 20 -25 c17 -22 20 -23 20 -6 0 11 -7 28
-17 38 -15 17 -15 20 5 41 12 13 22 30 22 38 -1 9 -7 6 -20 -10 l-20 -23 0 26
c0 25 -25 86 -35 86 -3 0 -5 -16 -5 -36z"/>
<path d="M7990 6023 c0 -72 4 -84 40 -153 l40 -75 -47 52 c-36 38 -63 57 -106
72 l-59 21 20 -27 c30 -42 61 -68 117 -97 41 -22 45 -26 20 -22 -16 3 -46 2
-65 -3 l-35 -8 45 -10 c25 -5 60 -6 78 -2 18 4 32 3 32 -3 0 -5 4 -7 9 -4 5 3
14 -8 21 -24 11 -26 68 -80 85 -80 10 0 -27 63 -49 82 -16 14 -8 12 37 -7 44
-19 74 -25 130 -25 l72 1 -65 34 c-48 25 -79 34 -120 36 l-55 1 83 13 c67 11
97 22 160 59 85 51 83 52 -37 31 -59 -10 -105 -26 -158 -55 -41 -22 -77 -40
-81 -40 -4 0 23 30 59 68 59 59 70 77 98 157 l32 90 -70 -69 c-61 -60 -74 -80
-102 -155 l-33 -86 -11 90 c-8 67 -19 106 -43 153 -18 34 -34 62 -37 62 -3 0
-5 -35 -5 -77z"/>
<path d="M4102 6023 c-32 -47 -38 -60 -21 -46 15 13 53 73 45 73 -2 0 -13 -12
-24 -27z"/>
<path d="M7576 5938 c-3 -13 -6 -36 -6 -52 0 -28 0 -29 -20 -11 -27 24 -26 7
1 -22 16 -16 19 -26 12 -35 -6 -7 -14 -24 -18 -37 -9 -30 12 -19 25 13 8 19 9
18 9 -10 1 -19 10 -39 26 -54 23 -22 25 -22 25 -4 0 10 -7 31 -14 47 -17 31
-7 36 18 8 17 -19 105 -55 113 -47 6 6 -65 56 -109 76 l-43 20 46 -6 c30 -4
65 0 105 13 l59 18 -62 3 c-35 2 -80 -2 -100 -7 -48 -14 -52 -8 -11 17 33 21
96 92 81 92 -22 -2 -75 -39 -96 -68 l-24 -32 5 50 c5 51 -10 70 -22 28z"/>
<path d="M6381 5841 c-22 -24 -38 -32 -58 -30 -15 1 -39 1 -53 0 -23 -2 -22
-4 10 -15 l34 -13 -30 -10 c-25 -9 -87 -73 -71 -73 18 0 76 27 95 44 24 21 24
21 -2 -28 -19 -35 -26 -64 -26 -100 l1 -51 28 55 c16 30 32 80 37 110 l8 55
13 -59 c12 -54 78 -165 90 -153 10 11 -29 125 -57 164 -16 24 -30 46 -30 49 0
3 20 -9 45 -26 41 -28 154 -75 162 -67 9 10 -87 72 -136 87 l-56 18 41 1 c47
1 104 19 104 32 0 15 -75 10 -116 -7 l-39 -16 24 26 c14 14 22 29 18 32 -4 4
-20 -8 -36 -25z"/>
<path d="M5304 5813 c-23 -21 -37 -26 -74 -25 -44 2 -44 2 -20 -13 16 -9 20
-14 9 -15 -8 0 -28 -14 -45 -31 -29 -31 -29 -31 -4 -24 53 16 70 25 70 36 0 7
3 10 6 7 3 -4 -1 -17 -10 -30 -19 -29 -34 -132 -16 -108 25 34 50 91 50 115 0
37 17 30 23 -10 5 -31 65 -121 74 -111 9 9 -20 92 -44 122 -31 41 -24 54 30
54 23 1 53 7 67 15 25 14 24 14 -17 15 -23 0 -54 -5 -69 -11 -28 -10 -28 -10
-9 11 28 31 12 34 -21 3z"/>
<path d="M5330 5751 c25 -21 127 -57 136 -48 10 10 -75 56 -116 62 l-45 6 25
-20z"/>
<path d="M4916 5690 c-5 -30 -1 -53 13 -86 l20 -45 -42 34 c-41 33 -98 67
-114 67 -4 0 11 -18 32 -40 21 -22 44 -40 50 -40 6 0 19 -6 28 -12 15 -11 8
-12 -38 -10 -31 2 -55 0 -55 -6 0 -12 73 -24 97 -15 17 6 17 5 -1 -16 -20 -22
-20 -22 0 -15 10 4 26 13 35 21 12 10 23 11 43 3 15 -5 34 -10 42 -10 24 0 5
20 -19 21 -15 1 -12 3 10 9 28 6 83 35 83 43 0 7 -76 -7 -88 -16 -7 -5 -15 -7
-18 -4 -3 3 6 13 19 22 15 9 32 36 41 63 l16 46 -36 -34 c-19 -19 -44 -53 -54
-75 l-18 -40 -1 46 c-1 26 -9 66 -20 88 l-18 42 -7 -41z"/>
<path d="M7356 5686 c-12 -31 -16 -59 -12 -82 8 -41 -1 -45 -15 -6 -5 15 -21
35 -35 46 l-26 19 7 -24 c4 -13 15 -36 25 -50 l18 -26 -26 4 -27 4 25 -15 c14
-8 33 -15 43 -16 10 0 17 -8 17 -18 0 -10 7 -27 16 -38 15 -18 15 -18 11 9 -4
28 -4 28 17 9 18 -16 76 -42 94 -42 11 0 -44 52 -63 61 -16 7 -13 8 15 7 53
-3 131 13 123 25 -4 6 -39 8 -97 4 l-91 -6 45 24 c36 18 124 105 107 105 -16
0 -106 -60 -134 -89 -23 -24 -32 -29 -28 -16 10 25 19 129 13 146 -2 7 -12 -9
-22 -35z"/>
<path d="M8045 5719 c-4 -6 -5 -12 -2 -15 2 -3 7 2 10 11 7 17 1 20 -8 4z"/>
<path d="M7755 5638 c4 -13 17 -34 29 -47 l21 -23 -40 19 c-36 18 -135 37
-135 26 0 -10 107 -53 132 -53 15 0 30 -4 33 -10 4 -6 -11 -10 -37 -10 -28 -1
-62 -11 -98 -31 l-55 -29 60 6 c33 4 82 18 110 32 l49 24 -33 -38 c-29 -32
-61 -90 -61 -110 0 -19 68 55 82 90 l17 41 1 -35 c0 -19 7 -46 15 -60 l14 -25
2 35 c2 43 2 41 -7 64 -7 18 -6 18 19 1 35 -22 35 -11 0 21 -22 20 -27 33 -24
61 2 23 -1 33 -8 29 -6 -4 -11 -15 -11 -24 -1 -14 -2 -14 -12 3 -15 28 -50 65
-60 65 -5 0 -6 -10 -3 -22z"/>
<path d="M5460 5627 c0 -16 5 -38 11 -50 11 -21 11 -21 -7 -6 -10 9 -30 22
-44 28 -24 12 -24 11 3 -13 28 -26 28 -26 5 -26 -22 -1 -22 -1 5 -16 15 -8 33
-11 40 -7 6 4 20 6 30 5 9 -2 17 2 17 7 0 6 6 11 14 11 8 0 18 5 21 10 4 7 -3
8 -20 4 l-27 -7 17 27 c10 15 15 29 12 32 -3 4 -15 -9 -26 -27 -17 -27 -21
-30 -21 -14 -1 11 -7 31 -15 45 l-14 25 -1 -28z"/>
<path d="M6484 5576 c4 -66 3 -69 -12 -49 -19 23 -70 58 -77 51 -5 -5 29 -40
60 -64 20 -15 20 -15 -2 -9 -13 3 -30 2 -39 -3 -14 -8 -12 -10 10 -16 15 -4
32 -3 38 0 8 5 9 2 5 -9 -8 -21 6 -22 23 -2 9 11 17 12 30 5 29 -16 45 -13 30
5 -10 12 -9 15 8 15 11 0 25 7 32 15 10 13 9 15 -12 15 -13 0 -30 -6 -37 -12
-8 -7 -5 1 7 17 11 17 24 41 28 55 6 23 5 24 -10 11 -10 -8 -26 -31 -36 -50
l-19 -36 -1 30 c-1 17 -8 46 -16 65 -14 34 -14 34 -10 -34z"/>
<path d="M5287 5523 c-5 -26 -2 -56 8 -83 8 -24 14 -45 12 -47 -3 -2 -16 12
-31 32 -26 33 -126 95 -126 77 0 -14 73 -79 108 -97 43 -21 37 -27 -19 -17
-24 4 -66 5 -94 2 l-50 -6 45 -13 c26 -7 67 -11 95 -8 l50 5 -40 -17 c-22 -10
-47 -26 -55 -36 -14 -17 -13 -18 15 -11 17 4 42 16 57 26 27 20 27 20 31 -3 3
-21 4 -21 11 -2 15 41 24 50 55 56 44 9 54 23 13 17 l-33 -5 25 24 c14 13 26
28 26 33 0 4 3 16 7 25 11 29 -35 -1 -58 -38 l-20 -32 6 35 c4 24 0 50 -13 80
l-19 45 -6 -42z"/>
<path d="M6295 5543 c-8 -25 -21 -30 -28 -10 -3 6 -6 1 -6 -13 -1 -15 4 -31
11 -38 7 -7 8 -12 3 -12 -10 0 26 -29 37 -30 4 0 5 6 2 14 -4 10 2 12 23 9 22
-4 25 -2 13 6 -8 6 -24 11 -35 11 -16 1 -14 4 10 17 17 9 25 18 18 20 -7 2
-21 -1 -33 -7 -20 -11 -21 -10 -10 10 6 12 9 26 6 33 -2 7 -8 2 -11 -10z"/>
<path d="M5591 5510 c6 -25 21 -62 35 -82 29 -45 25 -47 -21 -12 -29 22 -133
59 -142 50 -8 -8 89 -65 132 -77 l50 -14 -65 -6 c-36 -3 -81 -13 -100 -22
l-35 -15 51 -1 c28 -1 70 5 92 13 l41 15 -41 -41 c-22 -22 -37 -42 -34 -45 7
-8 57 25 78 51 l18 21 0 -23 c0 -13 4 -20 10 -17 6 3 10 20 10 36 0 22 6 32
23 38 13 5 29 16 36 25 12 14 11 16 -5 10 -10 -4 -26 -12 -34 -18 -11 -8 -10
-4 3 16 9 15 17 42 17 60 l0 33 -20 -25 c-11 -14 -20 -33 -20 -42 0 -30 -20
-20 -20 10 -1 16 -14 43 -35 67 l-34 40 10 -45z"/>
<path d="M7200 5525 c-8 -10 -21 -13 -38 -8 -17 4 -23 2 -18 -5 4 -6 -2 -17
-14 -24 -29 -18 -25 -29 6 -18 22 9 25 8 20 -6 -3 -9 -9 -28 -12 -42 l-6 -27
21 25 c11 14 21 33 21 43 0 9 5 17 10 17 6 0 10 -9 10 -19 0 -10 9 -29 20 -42
17 -21 19 -22 20 -6 0 10 -7 31 -15 47 -17 34 -14 36 18 16 12 -8 33 -17 47
-21 23 -7 24 -6 11 9 -8 10 -28 23 -45 31 l-31 13 35 2 c31 1 33 2 12 10 -12
5 -30 6 -39 3 -11 -4 -14 -3 -9 5 10 17 -9 15 -24 -3z"/>
<path d="M6430 5424 c0 -16 8 -41 17 -54 l17 -25 -24 18 c-29 20 -74 42 -110
51 -24 7 -24 6 5 -19 17 -15 53 -37 80 -50 l50 -24 -55 -1 c-30 -1 -73 -10
-95 -20 l-40 -19 58 0 c32 -1 74 6 94 14 47 20 51 14 11 -17 -18 -14 -44 -44
-57 -68 l-23 -42 40 27 c22 14 46 40 52 56 15 35 34 50 21 17 -9 -25 -4 -75 9
-83 11 -7 22 62 14 88 -7 22 -6 22 15 3 27 -25 28 -3 0 23 -17 16 -19 23 -9
41 6 11 9 29 7 38 -3 14 -6 12 -15 -8 -10 -22 -11 -23 -11 -4 -1 11 -12 35
-26 54 l-25 34 0 -30z"/>
<path d="M7550 5430 c0 -12 -4 -18 -10 -15 -13 8 -13 -8 1 -22 8 -8 8 -13 0
-17 -6 -4 -11 -12 -11 -17 0 -6 5 -7 10 -4 6 3 13 -1 16 -9 8 -20 24 -21 24
-1 0 12 4 13 19 5 36 -19 46 -10 14 11 -34 21 -43 32 -20 24 6 -3 26 -1 42 4
29 9 29 9 5 11 -14 1 -34 1 -45 0 -19 -2 -18 0 4 24 30 32 11 35 -20 4 -16
-17 -20 -19 -16 -6 3 10 2 20 -3 23 -6 4 -10 -3 -10 -15z"/>
<path d="M7288 5389 c-2 -22 2 -54 9 -71 7 -17 11 -33 8 -36 -2 -3 -7 3 -11
12 -4 9 -24 26 -46 37 l-39 20 18 -27 c9 -15 31 -35 48 -45 l30 -19 -35 -1
-35 -1 28 -8 c16 -5 34 -7 41 -4 7 3 25 -11 40 -31 30 -38 46 -42 26 -5 -11
21 -11 21 19 6 35 -19 101 -22 84 -5 -6 6 -28 16 -49 24 l-39 13 40 7 c38 7
121 43 113 50 -8 7 -118 -14 -147 -30 -45 -23 -49 -13 -8 18 20 15 43 47 55
77 l21 51 -42 -36 c-23 -20 -52 -55 -64 -78 l-22 -42 -1 46 c0 40 -23 119 -34
119 -2 0 -6 -18 -8 -41z"/>
<path d="M3034 5383 c-9 -15 -20 -41 -24 -58 -5 -26 -12 -32 -51 -41 -26 -7
-57 -18 -70 -25 -24 -13 -24 -14 -3 -17 12 -2 39 4 60 12 l39 16 -41 -38 c-35
-32 -95 -142 -77 -142 19 0 102 85 108 110 13 60 21 37 9 -26 -10 -58 -10 -73
9 -140 11 -41 22 -73 23 -71 2 2 9 37 15 78 9 61 8 86 -5 143 -9 38 -14 71
-12 73 2 3 21 -25 41 -61 28 -50 51 -75 98 -109 90 -63 91 -64 76 -36 -43 81
-86 135 -139 172 -32 23 -59 45 -59 49 -1 4 29 -2 66 -13 45 -12 97 -19 153
-18 l85 1 -55 26 c-48 24 -67 27 -147 26 -51 0 -93 1 -93 3 0 1 21 8 47 14 42
11 123 69 123 89 0 18 -112 -28 -145 -60 -19 -19 -35 -29 -35 -24 0 6 4 14 9
20 8 9 23 74 17 74 -2 0 -12 -12 -22 -27z"/>
<path d="M2340 5324 c111 -182 125 -198 238 -284 61 -46 110 -85 109 -86 -1
-1 -60 18 -132 43 l-130 44 -163 -12 c-89 -7 -159 -16 -155 -19 5 -4 71 -26
147 -49 l139 -43 146 6 146 7 -132 -63 c-118 -56 -141 -72 -223 -150 -51 -49
-88 -88 -82 -88 6 0 61 18 124 40 l113 41 104 102 c57 56 100 95 95 87 -4 -8
-29 -48 -55 -87 -42 -64 -48 -82 -54 -145 -13 -134 -7 -138 53 -38 46 77 54
97 64 174 7 51 15 81 20 74 4 -7 8 -25 8 -40 0 -25 57 -134 66 -125 10 10 -21
136 -43 174 l-26 45 67 -4 c36 -1 66 0 66 5 0 4 -30 7 -67 7 l-67 0 46 48 c28
29 52 66 62 96 9 27 14 51 13 53 -2 1 -22 -13 -45 -33 -29 -24 -46 -50 -56
-82 -18 -58 -19 -38 -5 64 10 75 10 80 -22 168 -17 50 -35 94 -38 99 -4 4 -15
-42 -24 -102 l-18 -108 31 -78 c17 -43 29 -79 28 -81 -2 -1 -32 46 -66 106
-64 109 -64 110 -170 183 -143 98 -139 96 -112 51z"/>
<path d="M3603 5345 c3 -11 8 -38 12 -60 4 -22 18 -52 33 -67 37 -40 19 -35
-27 7 -27 24 -61 42 -107 55 -37 11 -69 18 -71 16 -11 -11 107 -88 165 -108
l67 -23 -80 -6 c-61 -4 -95 -12 -145 -36 l-65 -32 77 0 c57 -1 89 4 125 20
100 44 101 43 41 -18 -46 -48 -108 -144 -108 -168 0 -4 25 15 55 40 39 34 63
65 81 106 29 65 43 72 24 13 -10 -29 -10 -48 0 -91 11 -45 15 -51 24 -36 6 10
10 50 10 89 0 71 0 71 19 48 10 -13 23 -24 28 -24 13 0 -14 51 -40 74 -19 17
-19 21 -6 47 8 15 15 43 15 61 -1 31 -1 32 -15 14 -8 -11 -15 -31 -16 -45 0
-24 -1 -24 -9 -6 -5 11 -11 31 -14 45 -4 14 -22 43 -42 65 -24 27 -34 34 -31
20z"/>
<path d="M2965 5320 c10 -11 20 -20 23 -20 3 0 -3 9 -13 20 -10 11 -20 20 -23
20 -3 0 3 -9 13 -20z"/>
<path d="M5398 5323 c-8 -10 -19 -27 -23 -38 l-8 -20 -5 20 c-7 36 -25 43 -19
8 5 -27 4 -31 -11 -27 -12 4 -10 0 6 -13 16 -13 21 -24 16 -38 -6 -14 -4 -17
8 -12 9 3 24 -3 34 -14 22 -24 29 -18 14 11 -10 19 -9 21 7 17 10 -3 32 -8 48
-12 45 -10 18 12 -36 29 -29 9 -36 14 -21 15 24 1 82 27 82 37 0 9 -61 -7 -95
-23 l-30 -16 21 24 c20 22 41 69 31 69 -2 0 -11 -8 -19 -17z"/>
<path d="M7070 5332 c0 -5 6 -14 13 -21 10 -12 8 -12 -8 -6 -30 13 -105 18
-105 8 0 -11 58 -33 91 -34 15 0 8 -5 -21 -13 -25 -6 -63 -24 -85 -40 -22 -16
-32 -26 -23 -23 9 3 34 9 55 13 21 4 55 18 75 31 51 32 58 29 21 -9 -18 -20
-37 -56 -46 -88 l-16 -55 38 42 c20 23 43 61 51 85 l13 43 12 -50 c6 -27 20
-63 31 -80 l19 -29 3 38 c3 28 -4 49 -24 80 -26 40 -26 40 -3 20 25 -21 72
-44 92 -44 15 0 -54 59 -70 60 -6 0 -15 5 -19 12 -4 6 -3 9 2 6 5 -3 18 -2 29
3 15 5 7 8 -27 8 -36 1 -50 6 -57 20 -11 19 -41 36 -41 23z"/>
<path d="M1973 5311 c-12 -11 -23 -25 -25 -32 -3 -9 -22 -12 -57 -10 -35 1
-51 -1 -46 -8 3 -6 18 -11 33 -11 l27 -1 -32 -17 c-33 -18 -82 -72 -64 -72 22
0 67 25 89 50 23 24 23 24 -2 -22 -19 -34 -26 -61 -26 -100 l1 -53 25 48 c14
27 28 70 31 97 7 58 18 57 26 0 4 -34 74 -157 83 -147 9 8 -29 126 -51 159
-15 22 -25 42 -23 44 3 2 19 -7 38 -21 33 -25 127 -61 136 -52 10 9 -72 63
-120 79 l-51 16 42 1 c41 1 93 18 93 30 0 13 -71 10 -106 -5 -38 -16 -39 -16
-23 2 18 22 32 44 26 44 -2 0 -13 -9 -24 -19z"/>
<path d="M9660 5272 c3 -27 17 -64 30 -83 20 -28 14 -24 -36 21 -49 45 -72 58
-126 73 -37 9 -75 20 -85 23 -10 3 14 -25 52 -63 65 -65 75 -71 133 -82 35 -7
62 -14 60 -17 -3 -2 -49 0 -104 6 l-99 10 -102 -37 c-57 -21 -103 -41 -103
-45 0 -3 48 -8 108 -10 98 -3 116 -1 212 29 57 18 105 31 107 30 1 -2 -39 -32
-89 -67 -87 -61 -96 -71 -155 -170 -35 -58 -63 -108 -63 -112 0 -5 45 26 99
67 88 67 105 86 160 172 34 54 61 89 61 78 -1 -11 -9 -60 -19 -109 -17 -81
-18 -97 -5 -194 8 -58 15 -107 17 -109 2 -1 16 42 32 97 31 108 31 86 -1 295
-3 17 10 -5 28 -47 27 -63 43 -84 89 -122 31 -25 59 -46 62 -46 3 0 -10 35
-28 77 -24 56 -48 91 -84 125 -47 46 -56 64 -15 33 11 -8 40 -14 69 -14 l50 0
-45 24 c-26 14 -63 24 -87 25 -37 0 -42 3 -52 31 -6 18 -11 41 -11 51 0 16
-54 108 -64 108 -1 0 0 -22 4 -48z"/>
<path d="M5694 5292 c-12 -10 -28 -31 -37 -47 -14 -27 -16 -28 -17 -8 0 12 -5
25 -12 29 -8 5 -9 -3 -5 -28 5 -31 2 -38 -25 -58 -32 -24 -32 -38 0 -21 19 10
19 9 10 -17 -6 -16 -8 -42 -4 -58 l8 -29 13 25 c8 14 15 39 15 55 1 30 2 30
20 -11 15 -34 80 -99 80 -80 0 14 -27 65 -54 100 l-29 38 41 -21 c22 -11 67
-23 99 -26 l58 -6 -45 25 c-25 14 -66 28 -92 32 -55 8 -55 19 -1 27 21 3 58
14 83 25 l45 21 -50 0 c-33 1 -61 -6 -83 -19 -42 -26 -50 -25 -25 3 25 27 47
67 36 67 -4 -1 -18 -9 -29 -18z"/>
<path d="M10003 5280 c2 -14 8 -33 12 -42 6 -16 5 -16 -24 -2 -17 9 -36 14
-43 12 -6 -2 7 -14 30 -25 l42 -21 -34 -6 c-50 -10 -60 -31 -11 -23 29 5 35 3
27 -5 -21 -21 -13 -32 9 -12 12 10 24 18 28 18 3 -1 5 3 3 9 -2 6 5 17 14 24
10 7 13 13 7 13 -6 0 -8 12 -5 28 4 26 4 26 -12 7 -12 -15 -16 -16 -16 -5 0 8
-8 24 -16 35 -16 20 -16 19 -11 -5z"/>
<path d="M1195 5253 c-2 -7 -11 -13 -18 -13 -8 0 -14 -6 -14 -12 0 -7 -4 -22
-9 -33 -7 -18 -6 -18 9 -6 15 12 17 11 17 -7 0 -12 5 -24 10 -27 6 -4 10 7 10
27 1 27 2 30 11 16 5 -10 20 -23 32 -30 20 -10 19 -8 -6 25 l-27 36 37 -5 c29
-4 34 -3 23 5 -8 6 -24 11 -34 11 -20 0 -20 0 -1 14 19 13 18 14 -8 13 -15 -1
-29 -8 -32 -14z"/>
<path d="M10665 5247 c-16 -12 -31 -24 -33 -28 -1 -3 -9 -15 -17 -25 -13 -18
-14 -18 -9 2 3 12 1 25 -5 28 -7 5 -11 -5 -11 -27 0 -29 -6 -38 -35 -56 -37
-21 -51 -50 -16 -31 28 14 33 13 23 -7 -5 -10 -12 -36 -16 -58 l-6 -40 24 30
c14 16 27 43 29 60 3 25 4 24 5 -10 2 -26 13 -55 33 -85 l31 -45 -7 50 c-4 28
-18 70 -33 95 l-26 45 42 -36 c23 -20 59 -41 79 -48 21 -7 45 -15 53 -18 8 -3
-1 11 -20 31 -18 20 -57 45 -84 55 l-50 19 54 7 c30 4 70 13 89 20 l36 13 -39
7 c-28 6 -53 3 -84 -9 -50 -18 -65 -16 -28 3 13 7 30 28 39 47 9 19 16 34 14
34 -1 0 -15 -11 -32 -23z"/>
<path d="M1579 5234 c12 -16 30 -32 39 -37 10 -4 2 -5 -18 -2 -20 3 -56 -1
-80 -8 l-45 -14 48 -8 c26 -4 67 -5 90 -1 l42 6 -38 -24 c-37 -23 -96 -83 -97
-99 0 -17 67 28 107 70 l43 45 -16 -51 c-8 -29 -14 -69 -12 -89 l4 -37 17 37
c9 21 17 57 18 80 1 42 1 42 10 12 5 -17 18 -39 30 -50 l22 -19 -7 34 c-3 19
-14 43 -23 54 -17 18 -16 18 10 12 38 -10 34 3 -7 20 -25 11 -36 23 -41 45 -9
39 -30 54 -23 15 l6 -27 -25 26 c-13 14 -28 26 -33 26 -4 0 -16 3 -26 7 -16 6
-15 2 5 -23z"/>
<path d="M2284 5245 c2 -11 8 -31 12 -45 6 -24 6 -24 -12 -9 -26 23 -64 41
-64 32 0 -5 19 -21 42 -36 l42 -27 -42 0 c-25 0 -42 -5 -42 -11 0 -8 12 -10
35 -6 32 5 34 4 20 -10 -9 -8 -14 -17 -12 -19 7 -8 57 22 57 34 0 7 7 15 15
18 8 4 15 10 15 16 0 5 -4 7 -9 4 -4 -3 -6 7 -3 22 4 26 4 26 -12 7 -12 -16
-15 -17 -16 -4 0 8 -7 24 -16 35 -15 19 -15 19 -10 -1z"/>
<path d="M10140 5259 c0 -2 -15 -47 -34 -99 -33 -92 -34 -98 -26 -185 5 -49 7
-91 5 -94 -2 -2 -9 17 -15 42 -8 31 -25 58 -56 88 -24 24 -44 40 -44 36 0 -28
49 -129 77 -158 40 -42 40 -41 -52 -54 -27 -4 -45 -10 -38 -12 6 -2 35 0 65 6
29 5 55 8 56 6 2 -2 -10 -24 -27 -49 -22 -31 -34 -64 -40 -108 -5 -35 -8 -64
-6 -66 1 -1 19 21 39 50 23 34 36 65 36 85 0 17 4 34 9 37 4 3 11 -35 14 -83
6 -87 8 -92 63 -178 l56 -88 -4 111 -3 111 -48 73 c-27 39 -47 73 -45 75 2 1
42 -41 90 -94 l88 -96 130 -51 130 -52 -88 96 c-85 93 -90 97 -221 159 -73 35
-131 66 -130 67 2 2 65 -4 139 -14 l135 -17 155 47 c175 54 176 52 -32 70
l-127 12 -127 -37 c-69 -20 -130 -35 -134 -33 -4 2 40 39 99 83 109 81 109 81
251 287 8 12 11 20 5 17 -70 -40 -215 -133 -227 -147 -8 -9 -45 -64 -82 -121
-36 -58 -66 -100 -66 -95 0 5 15 49 33 97 l34 88 -14 91 c-7 51 -16 94 -18 97
-3 2 -5 2 -5 0z"/>
<path d="M845 5222 c-16 -11 -15 -44 0 -38 9 3 12 0 8 -10 -4 -10 0 -12 11 -8
9 3 16 12 16 18 0 20 -24 46 -35 38z"/>
<path d="M1291 5177 c-1 -32 5 -70 13 -85 7 -15 17 -38 21 -52 7 -23 4 -22
-31 11 -22 20 -58 47 -82 58 -39 20 -42 20 -33 4 15 -29 63 -70 101 -87 l35
-16 -40 5 c-22 2 -53 -1 -70 -9 l-30 -13 46 -7 c26 -4 60 -4 75 0 l29 7 -28
-23 c-40 -32 -24 -38 17 -6 31 23 40 25 76 17 44 -10 57 4 14 15 -26 7 -26 7
11 20 21 7 48 23 59 35 l21 21 -40 -7 c-22 -4 -48 -14 -57 -22 -10 -9 -18 -12
-18 -6 0 5 9 18 20 28 18 16 56 122 47 131 -8 8 -62 -78 -79 -125 l-16 -46 -2
45 c0 27 -13 69 -30 105 l-28 60 -1 -58z"/>
<path d="M5903 5195 c2 -16 8 -39 12 -50 8 -19 7 -19 -11 -4 -23 18 -75 41
-81 35 -5 -4 42 -38 72 -52 16 -7 10 -9 -27 -12 -27 -2 -48 -8 -48 -14 0 -7
15 -9 40 -5 35 4 38 3 24 -10 -8 -9 -13 -17 -11 -19 8 -8 37 8 37 20 0 6 5 4
10 -4 8 -13 11 -12 16 6 3 12 15 26 27 32 12 6 17 11 11 11 -7 1 -9 13 -7 29
l4 27 -20 -24 -21 -23 0 23 c0 13 -8 33 -16 44 -16 19 -16 19 -11 -10z"/>
<path d="M9764 5183 c-15 -20 -23 -33 -16 -29 13 8 56 66 49 66 -3 0 -17 -17
-33 -37z"/>
<path d="M730 5203 c0 -5 6 -15 13 -22 7 -9 8 -12 0 -7 -6 3 -22 2 -35 -3 -20
-9 -19 -10 15 -10 l38 -1 -28 -24 c-35 -30 -26 -44 10 -15 l27 20 1 -33 c0
-27 2 -29 8 -13 5 11 6 25 3 30 -3 6 2 4 11 -4 15 -12 17 -11 15 13 -1 14 -8
28 -15 30 -7 3 -13 13 -13 21 0 9 -5 13 -10 10 -6 -4 -17 -1 -25 5 -8 7 -15 8
-15 3z"/>
<path d="M987 5188 c-22 -16 -31 -18 -42 -8 -8 6 -22 10 -32 7 -15 -3 -14 -6
7 -15 22 -9 22 -11 5 -12 -11 0 -31 -9 -45 -20 l-25 -20 31 0 c16 0 36 6 43
13 8 6 5 -1 -7 -18 -11 -16 -23 -43 -27 -60 l-7 -30 26 24 c14 13 28 36 31 52
10 46 25 44 25 -3 1 -24 9 -59 20 -78 l19 -35 1 43 c0 23 -7 59 -15 79 -21 50
-19 51 18 17 33 -32 87 -68 87 -60 0 12 -63 76 -75 76 -8 0 -17 4 -20 10 -4 6
5 7 24 4 16 -3 37 -2 47 4 16 9 13 11 -18 17 -20 4 -43 3 -50 -1 -10 -6 -10
-4 1 9 21 26 10 28 -22 5z"/>
<path d="M10950 5205 c0 -16 36 -74 63 -102 36 -38 34 -40 -24 -13 -24 11 -64
19 -89 19 l-45 0 45 -24 c27 -14 62 -24 88 -25 23 0 42 -4 42 -9 0 -5 -19 -14
-42 -20 -24 -6 -56 -23 -73 -37 l-30 -25 40 7 c22 3 54 17 72 30 40 30 53 31
26 2 -11 -13 -24 -36 -28 -53 l-7 -30 25 23 c14 13 28 36 32 50 l7 27 11 -25
c8 -20 11 -22 14 -8 2 10 0 25 -6 35 -8 14 -4 24 16 45 15 15 23 31 19 35 -4
5 -14 -1 -23 -12 -14 -19 -15 -18 -8 13 4 17 3 47 -1 65 l-7 32 -12 -35 c-7
-19 -11 -46 -9 -60 3 -17 -2 -12 -15 15 -15 34 -81 98 -81 80z"/>
<path d="M580 5193 c0 -5 6 -15 13 -22 10 -11 9 -13 -4 -8 -9 3 -22 1 -30 -4
-10 -6 -6 -9 15 -9 29 0 29 0 10 -21 -19 -22 -19 -22 3 -10 19 10 22 9 17 -4
-4 -8 -3 -15 0 -15 12 0 34 62 29 81 -6 21 -23 26 -23 8 0 -8 -5 -8 -15 1 -8
7 -15 8 -15 3z"/>
<path d="M6862 5173 c-13 -19 -17 -34 -11 -48 4 -11 8 -14 8 -6 1 11 6 10 21
-4 22 -20 28 -8 8 14 -11 11 -8 12 15 7 19 -4 26 -3 22 4 -3 5 -14 10 -23 10
-15 1 -14 3 3 17 20 15 20 15 -2 10 -15 -3 -20 -1 -16 9 9 23 -4 16 -25 -13z"/>
<path d="M415 5179 c-10 -15 3 -25 16 -12 7 7 7 13 1 17 -6 3 -14 1 -17 -5z"/>
<path d="M469 5188 c-7 -31 -6 -39 6 -34 8 3 16 -3 18 -12 4 -15 5 -15 6 1 1
10 6 15 12 11 7 -4 10 1 7 12 -2 15 -46 35 -49 22z"/>
<path d="M3984 5155 c-10 -25 -21 -35 -37 -35 -12 0 -29 -5 -37 -10 -12 -8
-10 -10 9 -10 l24 0 -20 -22 c-20 -23 -43 -61 -43 -73 0 -12 63 41 71 60 6 14
7 8 3 -18 -4 -20 -3 -58 1 -85 l8 -47 13 40 c7 22 10 63 8 90 l-5 50 22 -39
c19 -36 61 -79 97 -100 28 -16 -42 96 -76 122 -41 31 -36 38 13 18 21 -9 58
-16 84 -16 l46 1 -35 19 c-20 11 -57 20 -85 21 -47 1 -48 1 -16 9 18 4 43 18
55 30 l21 22 -35 -7 c-19 -4 -43 -14 -53 -23 -17 -16 -18 -15 -12 11 10 38 -3
34 -21 -8z"/>
<path d="M11239 5167 c8 -8 4 -14 -17 -23 l-27 -12 40 -2 c22 -1 42 -2 45 -2
3 0 4 -21 2 -46 -2 -35 0 -43 7 -32 6 8 11 26 11 39 0 24 0 24 15 5 11 -15 14
-16 15 -3 0 8 -5 20 -12 27 -7 7 -9 12 -5 12 18 0 -40 44 -61 46 -19 2 -22 0
-13 -9z"/>
<path d="M8995 5136 c-27 -18 -56 -45 -64 -59 -16 -30 -42 -34 -81 -12 -14 8
-51 14 -85 14 l-60 0 45 -24 c35 -19 54 -23 85 -19 60 9 36 -5 -44 -26 -60
-15 -80 -27 -130 -72 -32 -29 -57 -54 -56 -56 1 -1 39 6 85 15 76 16 89 23
139 68 l55 50 -66 -87 c-64 -83 -67 -90 -87 -189 -12 -56 -20 -104 -18 -105 2
-2 31 35 65 81 54 75 65 97 89 190 32 120 41 116 42 -18 1 -86 2 -89 62 -208
33 -67 62 -120 63 -118 2 2 -2 63 -9 134 -11 124 -14 134 -58 222 -26 51 -47
95 -47 99 0 3 37 -28 81 -70 76 -70 123 -99 248 -153 l34 -14 -31 38 c-96 116
-105 124 -212 169 -90 38 -99 43 -60 38 25 -3 61 -9 80 -13 26 -5 55 -1 110
18 71 23 74 25 45 33 -68 18 -150 20 -210 4 -65 -17 -82 -15 -36 4 25 10 89
86 79 95 -2 2 -25 -12 -53 -29z"/>
<path d="M11671 5147 c-1 -26 -2 -27 -17 -13 -19 20 -31 21 -14 1 6 -8 9 -18
6 -24 -10 -16 18 -19 49 -6 17 7 25 14 18 14 -8 1 -10 8 -6 19 6 15 4 15 -9 4
-14 -11 -17 -10 -21 10 -4 20 -4 19 -6 -5z"/>
<path d="M6418 5138 c-8 -7 -20 -22 -26 -33 -11 -20 -11 -19 -12 2 0 12 -4 25
-10 28 -6 4 -10 -7 -10 -25 0 -18 -4 -29 -10 -25 -5 3 -10 2 -10 -4 0 -5 5
-13 10 -16 6 -3 10 -18 10 -32 0 -15 3 -24 6 -20 3 3 17 -6 30 -21 l23 -27 -8
31 -9 32 27 -14 c14 -8 33 -14 41 -14 23 1 -28 40 -51 40 -10 0 -19 5 -19 10
0 6 12 10 28 10 15 1 38 8 52 16 25 15 24 15 -15 11 -22 -3 -49 -8 -60 -13
-19 -7 -19 -7 1 17 19 21 38 59 31 59 -2 0 -10 -6 -19 -12z"/>
<path d="M11776 5115 c3 -22 17 -57 30 -77 13 -21 20 -38 15 -38 -6 0 -13 5
-16 10 -8 14 -53 36 -90 44 l-30 7 30 -25 c17 -14 44 -30 60 -35 22 -7 24 -10
10 -10 -11 -1 -31 -9 -45 -17 -24 -15 -24 -15 22 -11 39 4 45 2 41 -12 -5 -11
1 -9 19 7 14 13 38 22 59 23 29 1 31 2 10 8 l-24 6 26 12 c14 7 31 21 37 32
10 19 9 20 -17 10 -15 -5 -34 -16 -42 -22 -12 -9 -12 -6 2 15 9 15 17 44 17
65 l-1 38 -19 -35 c-11 -19 -19 -47 -20 -62 0 -16 -4 -28 -10 -28 -5 0 -10 10
-10 23 0 12 -14 42 -31 67 l-30 45 7 -40z"/>
<path d="M6988 5123 c0 -10 0 -26 0 -36 2 -17 1 -17 -26 0 l-27 18 17 -27 c13
-20 14 -28 5 -31 -6 -3 0 -6 15 -6 17 -1 29 -8 33 -21 3 -11 11 -20 16 -20 6
0 7 5 3 11 -5 8 -1 8 14 0 11 -6 29 -11 39 -11 17 1 17 1 1 11 -10 5 -18 15
-18 20 0 6 3 8 8 6 4 -3 21 1 37 8 l30 13 -32 1 c-17 1 -43 -3 -57 -9 -24 -9
-24 -7 9 26 19 19 35 40 35 46 0 13 -26 -6 -57 -41 l-23 -26 0 37 c0 37 -19
64 -22 31z"/>
<path d="M11458 5110 c-18 -25 -29 -30 -65 -30 -27 0 -42 -4 -38 -10 3 -5 16
-10 28 -10 19 0 18 -2 -9 -19 -31 -19 -67 -61 -60 -69 7 -7 71 30 89 52 15 18
15 15 -2 -21 -14 -28 -21 -61 -20 -95 l1 -53 24 50 c13 28 24 68 24 93 0 54
15 55 24 0 6 -36 72 -145 82 -136 10 10 -28 112 -57 154 -31 45 -31 48 -9 33
14 -9 36 -23 50 -32 25 -16 109 -41 116 -35 10 10 -76 63 -120 74 -48 12 -49
12 -16 14 19 0 51 10 70 21 l35 19 -50 -3 c-27 -2 -58 -7 -69 -12 -18 -8 -18
-7 -1 18 24 37 1 34 -27 -3z"/>
<path d="M12210 5120 c-8 -5 -12 -12 -9 -15 4 -3 12 1 19 10 14 17 11 19 -10
5z"/>
<path d="M4373 5100 c3 -14 9 -46 12 -72 5 -32 16 -54 36 -74 50 -48 31 -48
-25 1 -41 35 -71 50 -126 66 -40 11 -77 18 -82 17 -6 -2 20 -26 56 -54 47 -37
88 -58 144 -75 l77 -24 -95 -5 c-82 -5 -105 -10 -172 -42 -43 -20 -78 -39 -78
-41 0 -2 42 -1 93 1 64 2 107 10 142 24 132 55 127 57 54 -19 -58 -59 -158
-212 -132 -202 5 2 34 24 65 49 45 36 64 61 93 123 20 42 38 77 40 77 2 0 -3
-26 -10 -58 -12 -50 -12 -67 0 -111 7 -29 16 -55 18 -58 3 -2 11 21 17 53 11
54 9 115 -6 159 -3 11 3 6 14 -10 10 -17 31 -39 46 -48 l27 -18 -20 39 c-11
22 -33 49 -48 60 l-28 20 18 36 c19 41 24 117 6 99 -6 -6 -16 -27 -23 -48
l-13 -37 -7 43 c-4 27 -20 60 -43 89 -53 66 -56 68 -50 40z"/>
<path d="M11236 5098 c-9 -12 -13 -24 -11 -27 6 -5 45 29 45 41 0 15 -19 8
-34 -14z"/>
<path d="M12169 5113 c-5 -44 -3 -62 8 -72 9 -8 13 -8 13 -1 0 8 6 8 20 0 25
-13 26 -2 3 16 -17 12 -16 13 5 14 12 0 22 5 22 11 0 7 -10 9 -25 5 -14 -4
-25 -3 -24 1 3 19 -2 33 -11 33 -5 0 -10 -3 -11 -7z"/>
<path d="M12010 5084 c0 -22 -2 -25 -15 -14 -8 7 -15 10 -15 7 0 -10 30 -62
30 -52 0 6 6 3 13 -5 7 -8 23 -17 37 -18 21 -4 22 -2 11 12 -12 14 -11 16 7
16 12 0 24 5 27 10 8 13 -21 13 -47 -1 -21 -12 -21 -11 0 16 30 38 27 57 -3
22 l-25 -28 0 25 c0 14 -4 28 -10 31 -6 4 -10 -5 -10 -21z"/>
<path d="M12300 5101 c0 -7 -6 -11 -14 -8 -10 4 -12 0 -9 -14 6 -22 22 -24 46
-6 12 8 14 16 7 27 -9 13 -10 13 -10 0 0 -13 -1 -13 -10 0 -7 12 -10 12 -10 1z"/>
<path d="M12370 5096 c0 -9 5 -16 10 -16 6 0 10 4 10 9 0 6 -4 13 -10 16 -5 3
-10 -1 -10 -9z"/>
<path d="M6835 5058 c4 -24 12 -51 17 -61 14 -28 1 -37 -55 -38 -29 -1 -63 -4
-77 -8 -22 -7 -20 -8 18 -14 23 -4 54 -4 69 -1 26 7 26 6 -8 -24 -41 -38 -26
-42 25 -7 31 21 36 22 36 7 1 -16 1 -16 11 1 5 9 8 21 5 26 -3 5 9 15 27 21
22 9 27 14 16 17 -15 4 -16 7 -2 34 21 42 11 46 -21 9 l-26 -32 0 27 c0 26
-25 85 -36 85 -3 0 -3 -19 1 -42z"/>
<path d="M6009 5044 c10 -21 10 -21 -31 -7 -57 19 -71 10 -23 -15 38 -20 39
-21 12 -22 -27 0 -97 -24 -97 -34 0 -8 84 6 120 20 l35 14 -27 -24 c-14 -13
-36 -43 -48 -66 l-21 -42 35 29 c20 15 44 44 53 63 l18 35 3 -30 c5 -62 13
-95 22 -95 14 0 12 67 -2 93 -10 19 -7 18 21 -6 37 -31 61 -36 40 -9 -7 9 -20
23 -28 30 -9 7 -11 12 -3 12 7 0 12 5 12 10 0 6 -12 10 -27 10 -17 0 -36 10
-51 28 -17 20 -20 21 -13 6z"/>
<path d="M1766 5010 c-30 -34 -36 -37 -36 -19 0 12 -4 17 -11 13 -6 -4 -9 -19
-5 -36 5 -24 1 -31 -19 -40 -13 -6 -26 -17 -29 -24 -7 -17 6 -18 23 -1 12 10
13 8 6 -8 -11 -26 -19 -95 -11 -95 10 0 36 58 37 82 1 15 4 10 10 -14 9 -38
48 -108 61 -108 12 0 -20 99 -42 129 -26 37 -13 41 20 6 19 -20 105 -55 135
-55 19 0 -85 69 -125 83 l-45 15 35 1 c35 1 130 30 130 40 0 15 -78 8 -114
-11 l-41 -20 26 28 c24 26 47 74 36 74 -3 0 -21 -18 -41 -40z"/>
<path d="M6740 5030 c64 -55 135 -84 94 -39 -21 23 -55 43 -94 53 l-25 7 25
-21z"/>
<path d="M5773 5023 c4 -16 1 -20 -12 -16 -14 5 -15 4 0 -11 8 -9 29 -18 45
-20 23 -3 32 1 41 20 10 21 9 23 -7 14 -26 -14 -29 -13 -22 12 3 14 2 19 -6
14 -7 -4 -12 -15 -12 -24 -1 -13 -5 -11 -16 8 -14 23 -15 23 -11 3z"/>
<path d="M1073 5021 c-5 -3 -10 -16 -10 -29 -2 -19 1 -21 13 -12 11 10 14 8
14 -11 l1 -24 12 23 c9 15 16 19 23 12 8 -8 10 -4 9 12 -2 22 -43 42 -62 29z"/>
<path d="M3061 4927 c-46 -84 -51 -101 -52 -158 0 -35 -4 -84 -7 -109 l-7 -45
-13 78 c-10 69 -17 84 -59 137 -26 32 -49 57 -51 56 -10 -11 29 -162 50 -194
14 -20 33 -50 43 -67 l19 -30 -30 26 c-28 26 -101 56 -110 46 -9 -8 67 -61
110 -77 l41 -15 6 -70 c3 -39 12 -83 20 -100 l14 -29 6 49 c4 34 2 59 -8 78
-25 50 -8 39 36 -23 34 -49 54 -66 111 -95 38 -19 72 -35 75 -35 3 0 -17 34
-45 75 -42 62 -60 80 -108 105 -31 16 -55 29 -52 30 4 0 47 -13 96 -28 l91
-29 114 17 114 16 -70 21 c-138 42 -144 43 -253 32 -57 -5 -106 -8 -108 -6 -2
2 41 23 96 47 95 40 105 47 185 133 47 50 83 92 81 94 -1 2 -52 -19 -112 -47
-97 -44 -117 -58 -186 -128 -43 -44 -78 -77 -78 -73 0 3 18 49 40 101 33 79
41 112 48 200 5 58 8 106 6 108 -1 2 -25 -39 -53 -91z"/>
<path d="M11135 4998 c-10 -37 -10 -66 -2 -108 l8 -35 -15 26 c-14 24 -66 67
-66 54 0 -11 35 -60 55 -77 19 -16 19 -16 -10 -11 -21 4 -27 2 -20 -5 6 -6 24
-12 40 -14 22 -2 31 -9 33 -25 4 -26 32 -54 32 -31 0 8 -6 20 -12 27 -7 7 5 4
27 -8 22 -12 49 -21 60 -21 18 1 16 4 -10 25 -16 13 -38 26 -50 28 -11 2 -2 5
20 6 22 1 58 10 80 20 l40 19 -46 1 c-26 1 -63 -6 -82 -14 -52 -21 -57 -18
-19 11 28 22 82 108 82 131 0 14 -82 -73 -100 -107 l-19 -35 -2 60 c0 33 -4
71 -9 85 l-7 25 -8 -27z"/>
<path d="M11940 5000 c-13 -8 -12 -12 5 -29 17 -17 22 -18 33 -5 8 9 9 14 2
14 -6 0 -8 4 -5 10 4 6 -1 7 -11 3 -12 -4 -15 -3 -10 5 9 14 6 15 -14 2z"/>
<path d="M1485 4962 c-7 -30 -9 -31 -22 -15 -13 17 -14 16 -10 -4 3 -14 0 -23
-6 -23 -7 0 -4 -7 6 -14 9 -7 17 -18 17 -23 0 -6 8 -13 18 -17 9 -3 24 -9 32
-13 13 -5 13 -4 1 10 -12 15 -10 17 18 17 19 0 30 4 26 10 -3 6 -20 10 -38 10
l-31 0 34 30 c23 20 28 28 15 23 -11 -3 -31 -15 -44 -27 l-24 -21 12 23 c7 13
10 33 8 45 -3 19 -5 17 -12 -11z"/>
<path d="M3797 4963 c-3 -15 -11 -73 -17 -128 -12 -96 -11 -104 14 -204 15
-57 26 -105 24 -106 -2 -2 -31 37 -64 86 -49 71 -80 103 -148 154 -47 36 -87
65 -90 65 -2 0 19 -42 48 -92 48 -86 58 -97 140 -155 49 -34 91 -65 94 -68 3
-3 -27 8 -68 25 -74 30 -114 35 -200 22 l-45 -7 87 -34 c77 -30 96 -33 153
-29 36 3 62 2 59 -3 -3 -5 -13 -9 -24 -9 -17 0 -98 -58 -99 -72 -2 -13 105 34
130 58 32 31 39 30 91 -5 24 -16 63 -32 88 -35 l45 -6 -30 26 c-35 30 -66 43
-103 46 -15 0 9 4 53 7 68 6 90 13 150 46 l70 40 -88 3 c-77 2 -93 0 -125 -19
-79 -48 -85 -50 -42 -13 107 92 128 118 169 212 22 50 37 92 35 92 -3 0 -40
-31 -81 -69 -60 -55 -85 -87 -129 -167 -29 -54 -54 -93 -54 -86 0 7 7 57 16
110 l16 97 -32 120 c-18 66 -33 121 -35 123 -1 1 -5 -10 -8 -25z"/>
<path d="M4860 4940 c-40 -40 -40 -40 -40 -13 0 35 -12 22 -15 -17 -1 -21 -13
-41 -36 -61 -21 -19 -26 -26 -12 -19 29 14 38 13 25 -3 -6 -7 -14 -33 -18 -57
-8 -52 2 -47 35 15 l21 40 0 -30 c0 -17 12 -48 26 -70 l26 -40 -6 46 c-3 26
-15 63 -27 83 -25 43 -20 45 23 8 18 -16 56 -36 83 -45 l50 -16 -42 37 c-23
21 -61 45 -85 53 l-43 14 55 6 c30 4 71 14 90 22 l35 16 -60 -3 c-33 -2 -71
-7 -85 -11 l-25 -7 23 16 c21 16 59 76 47 76 -3 0 -23 -18 -45 -40z"/>
<path d="M11623 4928 l3 -36 -24 19 c-40 31 -50 21 -12 -13 19 -17 27 -28 18
-25 -10 4 -28 2 -40 -3 -21 -8 -20 -9 11 -9 29 -1 32 -3 21 -16 -8 -9 -9 -15
-2 -15 6 0 14 5 17 10 4 6 11 8 16 5 5 -4 9 0 9 8 0 8 6 17 13 20 7 2 13 17
15 33 2 22 -1 25 -10 16 -9 -9 -15 -6 -25 16 l-13 27 3 -37z"/>
<path d="M8071 4911 c-23 -23 -37 -31 -34 -21 3 10 0 21 -6 24 -7 5 -11 -5
-11 -28 0 -29 -5 -38 -30 -51 -16 -9 -30 -20 -30 -26 0 -6 7 -6 20 1 20 11 30
-3 10 -15 -5 -3 -10 -23 -10 -43 l0 -37 20 25 c10 14 21 36 23 50 3 19 4 18 6
-9 0 -18 11 -50 24 -70 l22 -36 3 27 c2 15 -6 48 -17 73 -21 48 -16 58 15 24
18 -20 55 -39 105 -54 39 -12 -36 51 -96 80 l-50 24 55 1 c30 0 69 7 85 14
l30 13 -39 6 c-25 4 -51 1 -74 -9 -39 -16 -56 -12 -23 5 19 11 59 71 46 71 -3
0 -22 -17 -44 -39z"/>
<path d="M2125 4907 c-5 -25 -2 -58 9 -95 l16 -57 -25 30 c-13 17 -24 33 -25
37 0 6 -96 68 -106 68 -15 0 61 -87 98 -112 l43 -29 -52 6 c-29 4 -72 4 -95 0
l-43 -8 45 -13 c26 -8 64 -12 90 -8 l45 6 -34 -19 c-19 -10 -41 -28 -49 -41
-15 -22 -14 -22 14 -12 16 6 41 22 55 36 l26 24 -4 -32 c-3 -25 -2 -29 6 -18
6 8 11 25 11 37 0 16 12 28 43 43 33 16 36 19 15 17 l-26 -4 18 26 c11 14 22
40 26 56 l7 30 -31 -29 c-17 -16 -33 -38 -35 -50 -3 -11 -5 2 -5 29 0 28 -7
66 -15 85 l-15 35 -7 -38z"/>
<path d="M6413 4913 c3 -30 2 -31 -17 -17 -31 21 -45 16 -17 -6 20 -17 20 -20
5 -20 -33 0 -6 -11 36 -15 23 -2 40 -1 36 2 -3 3 2 12 12 20 16 14 16 14 0 9
-15 -4 -16 -1 -8 22 l10 27 -18 -22 -19 -21 -11 26 -11 27 2 -32z"/>
<path d="M6653 4915 c-11 -8 -23 -11 -27 -8 -3 3 -6 -1 -6 -11 0 -9 -6 -19
-12 -21 -7 -3 -14 -20 -15 -38 -2 -28 -1 -30 11 -14 18 23 23 22 30 -8 4 -14
10 -25 15 -25 6 0 6 13 0 32 -12 42 -11 43 4 30 7 -6 26 -16 41 -22 26 -10 28
-9 16 5 -8 9 -27 22 -44 30 l-31 13 43 1 c24 1 42 6 42 12 0 8 -13 9 -37 4
-35 -6 -37 -5 -18 8 26 20 15 31 -12 12z"/>
<path d="M10927 4910 c-17 -44 -25 -97 -21 -143 l4 -52 -24 51 c-21 43 -103
130 -114 119 -9 -9 45 -95 87 -138 l46 -48 -53 20 c-29 12 -78 23 -110 26
l-57 6 40 -22 c22 -12 65 -28 95 -35 30 -6 44 -12 31 -13 -24 -1 -91 -40 -91
-52 0 -11 79 10 108 28 17 11 22 12 15 3 -7 -8 -13 -23 -13 -34 1 -16 7 -10
26 22 20 32 32 42 53 43 14 0 35 4 46 9 l20 9 -20 1 c-11 2 -27 2 -35 1 -9 -1
-4 7 12 21 29 26 64 88 49 88 -6 0 -29 -18 -51 -39 -23 -22 -39 -32 -35 -23
13 33 16 78 7 122 -5 26 -11 39 -15 30z"/>
<path d="M6124 4858 l5 -38 -27 18 -27 17 20 -27 c11 -15 24 -28 29 -28 5 0
17 -6 25 -13 10 -9 26 -11 46 -6 17 3 24 7 18 8 -21 2 -15 18 10 26 18 6 19 8
5 12 -9 2 -26 -1 -37 -6 -26 -15 -51 -4 -51 23 0 11 -5 28 -11 36 -8 11 -9 6
-5 -22z"/>
<path d="M6182 4867 c-28 -30 -30 -58 -3 -33 15 14 36 56 27 56 -1 0 -12 -10
-24 -23z"/>
<path d="M5083 4845 l6 -38 -22 20 c-12 11 -29 24 -37 28 -13 8 -13 7 0 -11 8
-10 23 -27 35 -36 20 -18 19 -18 -11 -12 -19 4 -34 1 -38 -5 -5 -7 4 -11 25
-11 31 0 32 -1 13 -16 -18 -15 -18 -15 6 -10 14 3 28 6 33 6 4 0 7 7 7 15 0 8
7 15 16 15 8 0 12 4 9 10 -3 5 -1 20 6 32 12 23 12 23 -10 4 -21 -19 -21 -19
-21 7 0 14 -5 29 -12 33 -8 5 -9 -3 -5 -31z"/>
<path d="M5287 4835 c3 -22 10 -44 14 -49 22 -24 6 -27 -18 -3 -25 23 -90 57
-109 57 -19 0 47 -55 89 -75 l48 -23 -58 -4 c-32 -3 -74 -12 -93 -21 l-35 -17
75 4 c41 1 84 6 95 11 13 4 6 -6 -17 -27 -20 -20 -44 -50 -53 -68 l-17 -33 33
21 c19 11 44 38 57 59 23 37 23 37 18 8 -4 -16 -2 -43 3 -60 l8 -30 11 37 c5
21 8 48 5 60 -6 23 -6 23 15 4 28 -25 28 -7 1 28 -16 20 -19 30 -10 39 6 6 11
22 10 37 -1 25 -1 25 -14 -5 l-14 -30 -1 30 c0 17 -12 43 -25 60 l-25 30 7
-40z"/>
<path d="M7773 4839 c-24 -17 -43 -33 -43 -37 0 -4 -9 -18 -19 -32 l-19 -24
10 40 c6 23 8 50 4 60 -8 18 -8 18 -16 -1 -5 -11 -9 -37 -9 -59 l-1 -38 -20
23 c-17 21 -19 21 -13 4 3 -11 12 -27 20 -36 11 -14 11 -20 -2 -45 -21 -40
-18 -54 5 -25 l20 23 0 -28 c0 -16 9 -40 20 -54 l20 -25 0 35 c0 20 -7 47 -17
60 -13 21 -10 19 18 -7 30 -28 109 -69 109 -57 0 11 -68 67 -97 80 -43 19 -42
28 3 20 22 -5 55 -1 92 10 l57 18 -55 6 c-36 4 -69 2 -94 -7 -22 -7 -41 -12
-42 -10 -2 2 16 19 39 39 33 28 88 99 75 98 -2 -1 -22 -14 -45 -31z"/>
<path d="M8443 4793 c-51 -61 -58 -75 -73 -148 -17 -77 -34 -97 -25 -29 6 44
3 58 -23 110 l-31 59 0 -70 c0 -48 6 -84 19 -115 18 -41 18 -43 2 -24 -21 25
-82 59 -82 45 0 -7 47 -52 98 -92 8 -7 10 -19 6 -32 -10 -30 -7 -98 4 -109 12
-12 26 62 18 94 -3 13 6 0 19 -29 24 -48 125 -149 125 -125 0 31 -46 112 -83
146 l-42 39 65 -35 c55 -30 79 -36 153 -42 48 -3 87 -4 87 -1 0 3 -32 21 -70
40 -54 27 -87 37 -145 42 -42 3 -78 9 -80 13 -2 4 31 14 73 24 66 14 88 25
156 76 44 33 75 60 70 60 -5 0 -48 -11 -96 -24 -63 -17 -105 -36 -153 -70 -36
-25 -68 -46 -71 -46 -2 0 16 30 40 68 28 41 53 95 65 141 12 41 19 76 17 78
-1 2 -21 -18 -43 -44z"/>
<path d="M7515 4810 c4 -6 -7 -10 -25 -10 -18 0 -29 -4 -25 -10 3 -5 16 -10
28 -10 19 0 17 -3 -13 -30 -43 -36 -27 -39 24 -5 l36 25 -15 -31 c-9 -17 -15
-42 -13 -57 3 -23 6 -20 25 28 13 32 22 46 22 34 1 -26 40 -78 41 -54 0 8 -7
27 -14 43 -14 25 -14 27 4 17 32 -17 46 -11 17 8 -15 10 -24 22 -20 25 3 4 -5
7 -19 7 -14 0 -28 7 -32 15 -3 8 -10 15 -16 15 -6 0 -8 -4 -5 -10z"/>
<path d="M6510 4784 c0 -8 -4 -12 -10 -9 -17 11 -11 -3 13 -27 21 -21 63 -36
52 -17 -3 4 3 13 12 19 15 9 13 10 -12 8 -24 -3 -31 1 -33 20 -4 25 -22 31
-22 6z"/>
<path d="M6550 4785 c-7 -9 -11 -18 -8 -20 3 -3 11 1 18 10 7 9 11 18 8 20 -3
3 -11 -1 -18 -10z"/>
<path d="M6293 4763 c4 -20 3 -21 -15 -12 -11 6 -22 8 -25 5 -3 -3 2 -8 11
-12 15 -6 15 -7 -1 -21 -17 -14 -17 -14 1 -9 14 5 17 2 12 -10 -6 -15 -4 -15
11 -3 10 8 24 19 30 26 16 14 17 47 2 37 -6 -3 -16 0 -21 7 -7 10 -8 8 -5 -8z"/>
<path d="M10538 4749 c-10 -10 -18 -24 -18 -30 0 -7 -8 -18 -17 -25 -11 -8
-13 -13 -5 -14 6 0 12 -12 12 -27 l1 -28 14 25 c10 17 14 20 15 9 0 -9 9 -24
21 -34 20 -19 20 -19 9 10 -6 16 -16 35 -22 42 -7 9 -7 13 0 13 6 0 14 -4 17
-10 3 -5 18 -10 33 -10 26 1 26 1 8 15 -11 8 -28 15 -39 15 -10 0 -15 5 -12
10 3 6 14 10 24 10 10 0 24 7 31 15 10 12 7 13 -22 5 -18 -6 -34 -10 -36 -10
-1 0 2 9 8 20 13 25 1 25 -22 -1z"/>
<path d="M9798 4683 c4 -58 13 -95 38 -152 l34 -76 -57 61 c-47 50 -73 68
-141 97 l-83 36 53 -61 c41 -48 70 -69 132 -99 l80 -39 -90 0 c-56 0 -113 -7
-154 -19 l-65 -18 75 -13 c68 -12 81 -11 145 8 38 11 71 19 73 17 2 -1 -16
-13 -39 -26 -38 -21 -98 -89 -99 -112 0 -19 103 51 127 86 14 20 27 37 28 37
1 0 0 -24 -2 -52 -3 -44 -2 -50 8 -34 6 10 14 41 18 69 5 46 9 52 36 59 17 5
44 20 60 34 l30 26 -35 -7 c-19 -4 -44 -15 -54 -24 -12 -10 -8 2 11 29 20 30
33 64 37 100 l7 55 -35 -40 c-20 -22 -38 -50 -41 -62 -17 -77 -19 -78 -25 -3
-4 58 -13 89 -38 138 -18 34 -34 62 -36 62 -1 0 -1 -35 2 -77z"/>
<path d="M5671 4717 l-1 -28 -26 20 c-41 32 -53 24 -16 -9 l32 -30 -27 -1
c-16 0 -37 -4 -48 -9 -15 -6 -6 -9 33 -9 l52 -1 -32 -29 c-41 -36 -32 -51 9
-17 l30 25 -5 -26 c-3 -18 -1 -24 7 -19 6 4 11 16 11 27 0 11 4 18 9 15 5 -3
8 12 7 34 0 21 -3 37 -5 34 -3 -2 -10 8 -17 23 l-12 28 -1 -28z"/>
<path d="M7270 4732 c0 -5 11 -26 25 -46 l25 -36 -31 15 c-18 10 -48 15 -77
13 l-47 -3 30 -14 c17 -8 55 -20 85 -26 l55 -12 -37 -8 c-23 -4 -55 -23 -80
-46 l-43 -38 50 16 c28 9 68 30 90 47 l40 31 -27 -45 c-14 -25 -29 -65 -33
-90 l-6 -45 30 45 c17 25 31 59 31 75 1 29 1 29 15 -9 20 -56 35 -68 35 -27 0
18 -5 41 -11 52 -10 19 -9 19 10 9 32 -16 26 5 -8 29 -20 15 -28 27 -24 40 3
11 0 28 -6 38 -9 16 -10 14 -11 -12 l-1 -30 -14 26 c-15 27 -65 66 -65 51z"/>
<path d="M5493 4704 c-17 -13 -34 -38 -38 -54 -9 -39 -29 -53 -21 -14 3 16 -1
42 -9 59 l-13 30 -3 -35 c-1 -19 -1 -46 0 -59 2 -21 0 -23 -14 -11 -26 22 -27
4 -1 -21 21 -20 24 -30 19 -64 -5 -38 -5 -39 11 -20 13 16 15 17 16 4 0 -19
37 -69 50 -69 12 0 -9 60 -29 85 -16 19 -16 19 9 2 33 -23 58 -33 100 -40 l35
-7 -30 26 c-16 13 -49 30 -72 36 -53 15 -55 28 -5 28 20 1 57 12 82 25 l45 24
-43 1 c-24 0 -60 -9 -83 -21 -50 -25 -61 -18 -27 19 26 27 62 91 56 97 -2 2
-18 -7 -35 -21z"/>
<path d="M6415 4657 c-4 -31 -4 -73 -1 -92 9 -45 1 -44 -23 3 -17 34 -71 94
-71 79 0 -18 27 -66 54 -96 28 -32 29 -33 6 -20 -15 9 -35 13 -50 9 l-25 -6
22 -12 c12 -7 34 -12 48 -12 l27 0 -23 -20 c-28 -23 -13 -27 19 -4 20 14 24
14 44 0 29 -21 62 -22 35 -2 -16 12 -15 14 10 19 16 3 37 13 48 22 19 15 18
16 -27 13 l-47 -3 23 25 c28 30 60 90 48 90 -12 0 -56 -49 -82 -90 l-21 -35 7
35 c10 42 7 116 -5 138 -7 12 -11 0 -16 -41z"/>
<path d="M4960 4680 c0 -6 24 -36 54 -66 30 -30 53 -54 52 -54 -2 0 -21 6 -42
13 -25 9 -59 11 -94 7 l-55 -6 59 -18 c38 -11 72 -15 97 -11 51 9 49 1 -3 -23
-37 -16 -113 -82 -96 -82 18 0 87 36 112 58 l30 27 -17 -27 c-9 -15 -17 -40
-17 -55 l0 -28 20 25 c11 14 20 35 20 48 0 26 15 29 24 6 12 -30 16 -8 5 24
-9 25 -8 36 5 54 21 30 22 61 1 34 -14 -19 -15 -18 -15 10 -1 16 -7 40 -14 53
-13 24 -13 24 -20 -12 -4 -21 -2 -47 4 -59 9 -20 9 -21 -2 -4 -31 45 -48 62
-77 79 -19 11 -31 14 -31 7z"/>
<path d="M7080 4663 c-14 -13 -19 -23 -12 -23 6 0 12 -8 12 -17 1 -17 2 -17
14 0 14 18 15 18 25 0 8 -14 10 -15 11 -2 0 8 -5 20 -11 26 -9 9 -6 10 12 6
21 -6 22 -4 12 9 -7 8 -10 18 -7 21 19 18 -36 -1 -56 -20z"/>
<path d="M9251 4636 c-31 -40 -47 -74 -59 -123 l-17 -68 -5 65 c-3 41 -13 76
-25 95 l-20 29 -3 -47 c-2 -31 4 -62 18 -94 18 -41 18 -45 3 -31 -10 8 -28 21
-41 27 -23 12 -23 12 -6 -14 9 -14 29 -32 44 -40 25 -13 26 -17 22 -74 -3 -41
-1 -61 7 -61 11 0 15 22 13 70 -1 21 2 18 18 -15 16 -34 99 -120 107 -111 9 9
-43 105 -70 130 l-32 28 57 -31 c50 -27 68 -31 130 -31 l73 0 -75 35 c-41 19
-91 35 -110 35 -19 0 -46 3 -59 7 -20 5 -11 10 45 23 49 11 87 29 131 61 34
24 62 47 62 50 2 14 -159 -39 -199 -67 -25 -17 -51 -34 -59 -39 -16 -9 -13 -2
31 63 25 36 73 171 64 180 -2 1 -22 -22 -45 -52z"/>
<path d="M4706 4646 c-4 -21 -2 -52 4 -72 15 -45 7 -54 -15 -16 -14 24 -93 82
-111 82 -12 0 55 -76 89 -101 l38 -28 -74 6 c-46 4 -77 2 -80 -5 -8 -12 52
-26 103 -24 19 1 28 -1 20 -5 -20 -7 -60 -44 -60 -55 0 -10 49 11 73 30 15 13
17 13 17 -2 0 -9 5 -14 10 -11 6 3 10 15 10 26 0 13 12 25 35 35 38 15 48 30
15 21 -24 -6 -25 1 -6 22 8 9 18 30 22 46 l7 30 -23 -20 c-12 -11 -26 -29 -31
-40 -6 -16 -8 -12 -8 16 -1 20 -7 51 -15 69 l-13 33 -7 -37z"/>
<path d="M5851 4644 c-17 -12 -26 -13 -34 -5 -14 14 -40 15 -32 1 3 -5 0 -10
-7 -10 -7 0 -24 -9 -38 -20 l-25 -21 30 7 c17 3 37 8 45 10 9 3 7 -3 -6 -18
-22 -24 -44 -61 -44 -74 0 -12 42 29 61 61 l19 30 1 -45 c1 -25 4 -56 9 -70
13 -43 24 3 16 68 l-6 57 18 -27 c17 -26 64 -68 76 -68 10 0 -25 53 -48 73
l-21 18 22 -6 c13 -3 31 -2 40 4 15 8 11 11 -25 17 -34 5 -40 9 -31 20 15 18
9 18 -20 -2z"/>
<path d="M7539 4627 c-14 -18 -32 -49 -38 -69 -15 -45 -25 -50 -16 -9 4 18 1
40 -8 57 l-14 27 -6 -32 c-4 -18 -2 -42 4 -53 13 -25 6 -34 -11 -13 -7 8 -17
15 -23 15 -6 0 2 -14 18 -30 24 -25 29 -38 27 -73 -2 -38 -1 -40 9 -17 10 24
11 24 19 5 7 -19 60 -74 60 -63 0 18 -26 75 -39 85 -26 20 -2 15 27 -6 30 -21
117 -34 101 -15 -11 13 -71 39 -114 50 -30 7 -30 7 12 15 38 7 139 57 131 64
-8 9 -113 -19 -145 -38 -36 -21 -38 -14 -7 23 17 20 55 110 46 109 -4 0 -19
-15 -33 -32z"/>
<path d="M6930 4622 c0 -18 7 -49 15 -69 20 -47 19 -50 -7 -26 -13 11 -38 28
-56 37 l-33 17 17 -26 c9 -14 31 -32 48 -40 l31 -13 -30 -1 c-16 -1 -37 -6
-45 -11 -11 -7 -4 -10 27 -10 36 0 41 -3 36 -17 -5 -15 -2 -14 18 3 17 16 33
21 59 18 27 -3 30 -2 15 5 -19 8 -19 9 5 19 14 5 32 17 40 27 12 15 11 16 -16
9 -16 -4 -34 -11 -41 -16 -6 -5 -3 8 8 29 10 20 19 46 19 58 0 19 -2 18 -20
-5 -11 -14 -23 -37 -27 -53 -8 -40 -23 -43 -23 -5 -1 18 -9 49 -20 68 l-19 35
-1 -33z"/>
<path d="M7920 4638 c0 -17 39 -95 54 -107 9 -8 22 -23 27 -33 9 -17 5 -16
-28 5 -31 20 -143 45 -143 32 0 -10 96 -55 119 -55 47 0 57 -17 14 -25 -21 -4
-56 -18 -78 -31 l-40 -24 34 0 c19 0 55 12 80 26 46 27 46 27 25 3 -12 -13
-24 -37 -28 -54 l-6 -30 30 33 c16 18 30 40 30 50 1 11 6 6 15 -13 l15 -30 -4
40 c-3 32 2 45 22 67 27 30 25 50 -2 22 -15 -15 -16 -13 -10 25 4 22 3 48 -1
58 -5 15 -9 12 -21 -16 -8 -19 -12 -44 -9 -55 3 -12 -3 -3 -14 19 -16 35 -81
109 -81 93z"/>
<path d="M2720 4615 c-11 -13 -15 -13 -21 -3 -7 10 -9 9 -9 -4 0 -9 -7 -21
-16 -26 -10 -5 -18 -25 -20 -43 -3 -29 -2 -32 9 -17 12 15 15 13 27 -15 12
-29 13 -30 17 -10 2 12 -1 32 -8 45 -11 21 -10 20 20 -5 38 -32 56 -35 39 -7
-7 11 -15 20 -18 20 -4 0 -15 7 -26 15 -18 14 -17 14 13 9 17 -3 39 -1 50 5
15 9 12 10 -21 11 -38 0 -39 0 -21 20 10 11 13 20 8 20 -6 0 -16 -7 -23 -15z"/>
<path d="M6022 4574 l3 -41 -34 26 c-33 25 -34 25 -22 3 7 -13 20 -26 29 -30
13 -5 10 -8 -13 -13 l-30 -7 28 -1 c15 0 27 -6 27 -12 0 -8 4 -8 15 1 8 6 19
9 24 5 6 -3 21 4 33 16 l23 22 -22 -6 c-21 -5 -21 -4 -6 19 22 34 10 41 -16 8
l-21 -27 0 24 c0 13 -5 31 -11 39 -8 11 -9 5 -7 -26z"/>
<path d="M6760 4580 c0 -5 -12 -10 -26 -10 -14 0 -23 -4 -20 -9 3 -5 -1 -11
-9 -15 -8 -3 -15 -10 -15 -16 0 -7 6 -8 19 0 18 9 19 8 10 -22 -11 -41 -11
-41 1 -33 5 3 14 20 19 38 7 28 9 29 16 12 14 -40 29 -67 33 -57 2 6 -4 27
-12 47 l-16 37 23 -14 c12 -8 31 -18 41 -22 19 -7 19 -6 1 14 -10 11 -25 20
-34 21 -10 0 -8 3 7 9 30 12 28 24 -3 18 -13 -3 -22 -1 -19 3 3 5 0 9 -5 9 -6
0 -11 -4 -11 -10z"/>
<path d="M8861 4542 c-1 -29 6 -69 14 -90 l15 -37 -38 42 c-20 23 -57 51 -82
64 l-45 22 26 -34 c14 -19 48 -49 75 -68 l49 -34 -41 7 c-23 3 -63 3 -89 0
-70 -10 -39 -29 46 -28 47 0 64 -3 49 -8 -22 -8 -59 -46 -60 -61 0 -11 41 12
71 39 l26 24 -5 -32 c-6 -42 8 -30 17 14 5 25 15 37 44 51 43 20 49 32 10 22
-26 -6 -27 -5 -11 12 9 10 19 34 23 53 l7 35 -22 -20 c-12 -11 -26 -29 -31
-40 -7 -17 -8 -16 -9 10 0 17 -9 48 -19 70 l-19 40 -1 -53z"/>
<path d="M5184 4542 l4 -43 -24 16 c-29 19 -32 5 -4 -20 16 -14 17 -20 8 -27
-9 -5 -5 -8 10 -8 13 0 32 -10 43 -22 13 -16 17 -18 13 -6 -5 15 -2 16 25 8
36 -10 42 2 9 18 -15 7 -17 11 -8 12 8 0 26 9 40 20 l25 21 -30 -7 c-16 -4
-38 -11 -48 -16 -16 -8 -16 -5 3 29 11 21 20 42 20 47 0 16 -33 -19 -46 -49
-10 -23 -13 -26 -14 -10 -1 11 -7 34 -16 50 l-14 30 4 -43z"/>
<path d="M6180 4572 c0 -6 -8 -9 -17 -6 -16 5 -16 4 0 -9 18 -15 17 -16 -10
-20 l-28 -4 29 -2 29 -1 -19 -22 c-14 -17 -15 -20 -2 -9 9 7 22 10 28 6 5 -3
10 -3 11 2 0 4 2 18 3 31 2 12 -3 27 -11 33 -9 8 -13 8 -13 1z"/>
<path d="M7145 4548 c-15 -18 -24 -27 -20 -21 3 7 1 21 -4 30 -9 16 -10 14
-11 -9 0 -16 -5 -28 -11 -28 -8 0 -8 -4 1 -15 7 -8 9 -23 5 -36 -6 -17 -4 -21
8 -16 10 4 18 -1 22 -14 4 -10 10 -19 15 -19 6 0 6 10 0 24 -9 24 -8 24 21 9
16 -8 35 -13 42 -10 6 3 -8 14 -33 26 -37 17 -41 21 -20 21 14 0 36 7 50 15
l25 14 -27 1 c-15 0 -39 -5 -53 -10 l-27 -10 26 31 c24 28 33 49 22 49 -3 0
-17 -15 -31 -32z"/>
<path d="M2944 4534 l-39 -35 43 32 c38 30 48 39 39 39 -2 0 -21 -16 -43 -36z"/>
<path d="M6591 4518 c-1 -38 10 -48 42 -40 17 4 17 5 0 18 -17 12 -17 13 -1
14 9 0 19 4 22 9 4 5 -4 7 -16 3 -17 -4 -20 -2 -14 13 5 15 4 16 -8 6 -11 -9
-15 -9 -19 1 -3 7 -6 -3 -6 -24z"/>
<path d="M5650 4533 c0 -4 5 -15 10 -23 8 -13 10 -13 10 2 0 9 -4 20 -10 23
-5 3 -10 3 -10 -2z"/>
<path d="M5679 4513 c-7 -20 -13 -23 -21 -15 -18 18 -44 16 -29 -1 6 -8 8 -17
4 -20 -10 -10 22 -8 51 3 14 5 26 14 26 20 0 6 -4 9 -9 6 -5 -4 -7 3 -4 14 8
29 -6 24 -18 -7z"/>
<path d="M7750 4525 c-11 -13 -15 -13 -21 -3 -6 9 -9 8 -9 -6 0 -10 -8 -25
-17 -32 -10 -7 -13 -14 -6 -14 7 0 9 -9 5 -22 -5 -20 -3 -21 10 -11 12 11 17
8 27 -13 18 -41 24 -21 6 22 -15 36 -15 37 2 22 19 -17 63 -33 63 -24 0 4 -14
15 -30 25 l-31 18 33 8 c33 8 33 8 6 12 -18 3 -25 9 -21 19 7 18 -1 18 -17 -1z"/>
<path d="M3830 4436 c0 -19 3 -37 8 -40 4 -2 6 13 4 35 -5 48 -12 51 -12 5z"/>
<path d="M6356 4365 c-4 -35 -2 -75 4 -95 13 -46 12 -51 -6 -18 -8 15 -28 35
-44 43 l-30 15 16 -33 c9 -19 28 -41 43 -51 19 -12 21 -16 6 -12 -11 3 -27 1
-35 -4 -13 -8 -12 -10 5 -11 11 -1 30 -1 42 0 16 1 24 -5 29 -23 7 -30 34 -57
34 -34 0 8 -5 19 -12 26 -16 16 -6 15 28 -3 16 -8 43 -15 59 -15 l30 1 -30 24
c-16 14 -41 25 -55 26 -17 0 -11 4 20 13 25 6 63 24 85 40 l40 28 -45 -7 c-25
-4 -64 -18 -87 -31 -58 -33 -63 -30 -21 14 29 29 78 122 78 147 0 17 -83 -90
-99 -128 -11 -26 -22 -47 -25 -47 -2 0 -2 24 0 53 3 30 0 70 -9 97 l-14 45 -7
-60z"/>
<path d="M5960 4253 c-12 -21 -25 -55 -28 -75 -5 -41 -22 -42 -22 -2 0 14 -10
44 -22 67 -22 42 -23 42 -26 14 -2 -15 6 -46 18 -69 11 -22 18 -43 15 -46 -3
-3 -5 0 -5 7 0 12 -68 46 -77 38 -7 -7 57 -57 75 -58 9 -1 4 -5 -13 -9 -29 -7
-29 -8 10 -9 29 -1 44 -7 53 -21 14 -23 34 -27 26 -5 -5 12 0 14 25 9 17 -4
38 -3 48 1 15 5 12 9 -15 20 -18 8 -40 12 -50 9 -14 -5 -15 -4 -2 5 8 6 22 11
31 11 8 0 31 16 49 35 l35 36 -45 -16 c-25 -9 -57 -28 -72 -42 -33 -31 -36
-23 -9 21 18 29 39 116 28 116 -3 0 -15 -17 -27 -37z"/>
<path d="M6723 4210 c-3 -11 -14 -20 -24 -20 -10 0 -21 -4 -24 -10 -3 -5 -1
-10 6 -10 8 0 6 -6 -4 -18 -25 -27 -22 -50 3 -27 20 18 20 17 20 -18 0 -20 5
-39 10 -42 10 -6 14 22 11 75 l-1 25 14 -26 c9 -14 27 -34 41 -43 26 -17 26
-17 15 6 -7 13 -24 36 -39 51 l-26 28 28 -10 c16 -6 40 -11 55 -10 26 1 26 1
-9 17 -36 17 -36 17 -15 34 21 17 21 17 -4 11 -14 -3 -31 -10 -38 -16 -9 -7
-11 -6 -6 7 3 9 3 16 -1 16 -4 0 -9 -9 -12 -20z"/>
<path d="M5632 4073 c11 -27 32 -58 47 -71 25 -22 25 -22 -26 3 -40 19 -68 25
-120 25 l-68 0 55 -27 c30 -14 89 -32 130 -38 l75 -11 -67 -16 c-48 -11 -86
-29 -133 -62 -36 -26 -65 -49 -65 -50 0 -2 35 5 78 16 46 12 95 32 122 52 25
18 51 36 59 41 16 9 13 2 -33 -65 -16 -24 -38 -74 -48 -110 l-17 -65 43 50
c35 39 47 63 59 115 l15 65 1 -48 c1 -29 10 -64 24 -90 l22 -42 3 49 c2 28 -3
65 -13 88 l-16 40 27 -21 c15 -12 31 -21 36 -21 16 0 -22 47 -48 59 -24 10
-26 16 -20 49 3 21 2 51 -3 67 -9 30 -9 30 -16 -14 l-8 -44 -18 35 c-15 30
-77 88 -93 88 -3 0 4 -21 16 -47z"/>
<path d="M6376 4087 c-15 -19 -26 -42 -26 -53 -1 -15 -4 -13 -16 9 -21 38 -29
27 -14 -18 11 -32 10 -39 -7 -58 -33 -37 -39 -51 -15 -38 11 6 22 16 24 23 2
6 4 -12 4 -40 0 -66 20 -91 29 -38 4 20 5 45 2 56 -8 30 0 24 20 -14 15 -29
103 -107 103 -91 0 16 -54 87 -87 114 -44 36 -41 38 27 11 30 -12 72 -20 103
-19 l52 1 -50 23 c-32 15 -69 24 -102 24 -62 1 -70 16 -15 26 21 3 58 20 83
36 l44 31 -50 -7 c-29 -4 -63 -17 -82 -31 -40 -30 -53 -31 -26 -1 18 19 40 87
28 87 -2 0 -15 -15 -29 -33z"/>
<path d="M6963 4076 c-13 -26 -24 -66 -24 -89 -2 -33 -3 -36 -6 -12 -3 16 -16
43 -30 60 l-26 30 7 -39 c4 -21 14 -50 23 -63 16 -23 15 -23 -12 -13 -25 10
-27 9 -14 -6 7 -9 23 -20 36 -25 16 -6 23 -17 23 -36 0 -16 5 -35 10 -43 7
-12 10 -8 10 15 l1 30 17 -21 c22 -25 82 -59 82 -45 0 5 -15 26 -34 45 -33 35
-33 36 -7 29 29 -8 74 -7 111 3 22 6 19 8 -25 20 -27 7 -70 11 -95 8 l-45 -5
40 22 c40 21 115 87 115 100 0 19 -86 -29 -126 -70 l-45 -46 21 54 c13 34 20
71 18 99 l-3 45 -22 -47z"/>
<path d="M7387 3995 c-22 -76 -29 -147 -18 -208 17 -96 14 -98 -28 -22 -29 51
-56 83 -103 121 -103 82 -102 85 -9 -76 7 -14 41 -47 73 -74 32 -26 57 -50 55
-52 -2 -2 -37 7 -77 21 -56 19 -93 25 -154 24 l-81 -1 75 -35 c67 -31 82 -34
147 -31 79 3 97 -6 33 -17 -26 -4 -58 -22 -89 -48 -27 -23 -48 -43 -46 -45 11
-11 126 35 161 64 l41 33 -18 -36 c-11 -21 -19 -46 -18 -58 0 -19 1 -19 17 4
9 12 24 42 32 65 15 38 19 41 60 46 25 3 56 12 70 20 l25 15 -32 3 c-17 2 -47
-4 -65 -13 -18 -9 -26 -10 -17 -3 64 53 79 70 102 121 14 31 24 57 21 57 -2 0
-27 -17 -54 -37 -35 -26 -55 -50 -66 -80 -9 -24 -19 -42 -21 -40 -2 2 4 35 12
73 15 65 15 74 -3 149 -13 54 -21 73 -25 60z"/>
<path d="M5229 3965 c-9 -25 -19 -35 -34 -35 -12 0 -30 -7 -41 -16 -18 -15
-18 -15 9 -11 28 4 28 4 9 -17 -23 -25 -45 -66 -39 -72 7 -7 58 37 65 57 4 10
7 -13 7 -51 0 -84 19 -114 29 -45 3 26 3 66 0 89 l-5 41 20 -36 c18 -32 111
-119 111 -104 0 19 -57 99 -86 122 -19 14 -33 27 -31 29 2 2 24 -3 49 -12 26
-8 66 -14 90 -12 l43 3 -39 18 c-21 9 -62 17 -90 18 -51 1 -51 1 -19 12 18 7
43 23 55 36 l23 23 -25 -7 c-14 -4 -39 -15 -57 -25 l-32 -19 9 25 c6 14 6 24
0 24 -5 0 -14 -16 -21 -35z"/>
<path d="M5010 3840 c0 -3 18 -73 39 -157 l38 -152 82 -116 c44 -64 81 -118
81 -120 0 -3 -53 31 -118 74 -87 57 -136 82 -183 94 -35 9 -95 26 -134 37 -80
23 -81 25 52 -83 l92 -75 118 -27 c175 -39 185 -46 63 -41 l-105 3 -90 -46
-90 -46 106 -3 c102 -3 109 -1 188 33 98 42 108 43 58 10 -24 -17 -48 -47 -68
-88 -24 -47 -27 -58 -13 -47 80 63 104 88 120 124 10 22 22 44 27 47 5 4 34 0
65 -8 46 -12 67 -12 119 -3 34 7 61 16 58 20 -11 17 -121 32 -160 21 -65 -18
-50 -6 42 34 82 36 92 44 151 118 35 43 62 80 60 83 -3 2 -49 -14 -104 -37
-96 -39 -100 -42 -149 -108 -27 -38 -51 -68 -53 -66 -1 1 24 54 57 116 l60
114 6 140 5 140 -63 -125 -64 -126 -12 -137 c-8 -76 -15 -136 -18 -133 -2 2
-17 63 -33 135 -16 72 -32 137 -37 144 -9 15 -173 239 -185 252 -4 5 -8 7 -8
5z"/>
<path d="M7688 3739 c-26 -42 -40 -77 -44 -115 -7 -54 -24 -76 -24 -29 0 13
-9 39 -21 57 l-21 33 5 -50 c3 -28 14 -65 24 -82 l18 -32 -32 -33 c-26 -28
-63 -95 -63 -116 0 -14 64 56 76 83 16 36 18 14 5 -54 -7 -34 -4 -57 11 -105
12 -33 24 -65 28 -69 4 -5 13 27 20 70 11 72 10 83 -9 132 -25 67 -17 59 34
-32 33 -59 53 -80 114 -124 41 -29 76 -51 78 -49 2 2 -17 38 -43 81 -34 56
-67 93 -120 137 -41 34 -74 62 -74 64 0 1 37 -12 83 -29 86 -33 116 -35 257
-21 l65 7 -100 34 c-93 32 -107 34 -202 31 -56 -2 -99 -1 -95 2 4 4 41 21 82
40 49 22 100 55 148 98 40 35 71 66 69 69 -3 2 -42 -10 -88 -27 -72 -26 -94
-40 -153 -98 -71 -69 -74 -68 -24 6 23 33 30 58 35 112 3 39 4 70 2 70 -2 0
-21 -27 -41 -61z"/>
<path d="M6440 3737 c-13 -23 -32 -71 -41 -107 l-16 -65 -8 55 c-7 51 -38 130
-51 130 -11 0 9 -106 28 -145 l19 -40 -23 26 c-23 26 -78 48 -78 31 0 -13 38
-45 68 -59 23 -9 24 -12 7 -12 -11 -1 -27 -6 -35 -12 -11 -8 -3 -9 31 -5 42 5
48 3 68 -25 27 -36 41 -31 17 5 -16 26 -16 26 10 16 15 -6 42 -7 62 -4 l35 7
-24 13 c-13 7 -37 14 -54 14 -30 1 -30 1 10 19 22 10 53 35 69 55 l28 37 -36
-15 c-20 -8 -58 -32 -83 -53 l-47 -38 26 45 c22 37 54 157 45 166 -1 1 -13
-16 -27 -39z"/>
<path d="M7415 3630 c10 -11 20 -20 23 -20 3 0 -3 9 -13 20 -10 11 -20 20 -23
20 -3 0 3 -9 13 -20z"/>
<path d="M7548 3523 c12 -2 32 -2 45 0 12 2 2 4 -23 4 -25 0 -35 -2 -22 -4z"/>
<path d="M8084 3430 c-21 -32 -33 -40 -53 -39 -41 3 -61 0 -61 -10 0 -5 12
-11 28 -13 l27 -4 -25 -12 c-23 -12 -78 -82 -65 -82 17 0 73 35 93 58 l23 27
-22 -48 c-16 -39 -19 -59 -14 -100 l8 -52 18 45 c10 25 18 71 18 105 1 64 11
64 29 0 6 -22 32 -62 57 -90 26 -27 44 -43 41 -34 -2 10 -10 36 -17 59 -7 22
-30 61 -52 86 -21 24 -36 44 -32 44 3 0 25 -10 48 -22 35 -18 157 -51 157 -43
0 12 -97 62 -140 71 -43 10 -48 13 -23 13 17 1 49 11 70 24 l38 22 -33 3 c-19
2 -50 -5 -71 -15 l-37 -19 14 29 c22 45 6 43 -24 -3z"/>
<path d="M6342 3426 c-7 -15 -12 -41 -12 -59 -1 -27 -2 -29 -11 -14 -11 18
-29 23 -29 7 0 -5 9 -19 20 -30 19 -19 19 -22 5 -43 -8 -12 -15 -31 -15 -42 0
-17 3 -15 20 10 l20 30 0 -32 c0 -19 10 -43 25 -60 l24 -28 -6 40 c-3 22 -10
49 -16 60 -7 16 -3 14 19 -7 16 -14 53 -36 83 -47 l54 -20 -29 31 c-16 17 -51
41 -79 54 l-50 23 55 1 c71 1 163 24 137 35 -18 8 -131 1 -177 -10 -23 -5 -24
-5 -6 7 36 24 97 81 107 100 18 33 -74 -20 -100 -58 -27 -39 -38 -39 -20 -1 7
16 8 34 2 52 l-9 27 -12 -26z"/>
<path d="M8273 3248 c-13 -25 -23 -56 -23 -69 -1 -21 -3 -19 -17 11 -20 46
-29 23 -8 -26 14 -35 14 -39 -4 -58 -10 -12 -22 -32 -25 -46 -7 -24 -7 -24 20
5 l27 30 -6 -32 c-4 -22 0 -47 12 -75 l18 -43 7 46 c4 25 2 58 -3 72 -15 38
-6 33 19 -10 18 -33 120 -115 120 -97 0 15 -47 73 -94 117 l-51 47 45 -16 c46
-16 158 -20 173 -5 15 15 -111 42 -164 35 -27 -4 -49 -4 -49 -1 0 4 22 16 49
27 40 18 139 100 119 100 -28 0 -101 -39 -137 -73 l-44 -42 22 37 c15 25 21
50 19 74 l-3 37 -22 -45z"/>
<path d="M4636 3245 c-15 -20 -33 -55 -41 -78 l-13 -42 -1 35 c-1 19 -8 46
-16 60 -14 25 -14 24 -15 -18 0 -24 5 -52 11 -63 10 -20 10 -20 -15 -4 -36 24
-33 1 3 -25 26 -18 29 -25 24 -55 -4 -23 -2 -35 6 -35 6 0 11 10 11 23 1 21 1
21 12 2 15 -27 50 -65 60 -65 14 0 9 16 -17 54 -26 38 -23 45 9 21 12 -9 41
-15 70 -15 l51 1 -38 20 c-21 11 -62 23 -90 26 l-52 7 48 12 c43 11 120 54
132 75 10 16 -110 -24 -140 -47 -44 -33 -51 -30 -20 9 22 30 59 126 51 134 -2
2 -15 -12 -30 -32z"/>
<path d="M5307 3194 c15 -30 29 -51 31 -46 3 9 -46 102 -54 102 -2 0 8 -25 23
-56z"/>
<path d="M6422 3111 c-21 -22 -32 -27 -47 -21 -11 5 -26 9 -32 9 -21 1 -14
-17 9 -25 20 -6 20 -7 -8 -19 -17 -7 -38 -25 -48 -40 -18 -27 -18 -27 6 -20
12 4 36 16 51 27 l28 20 -16 -32 c-9 -18 -19 -58 -21 -89 l-5 -56 24 45 c14
25 28 68 32 95 l8 50 11 -55 c9 -46 58 -150 70 -150 11 0 -19 112 -39 151 -34
64 -31 69 13 27 33 -32 109 -74 118 -65 7 7 -67 71 -103 88 -36 18 -36 19 -9
15 32 -4 76 11 76 27 0 5 -23 8 -54 5 l-54 -4 15 23 c21 32 7 29 -25 -6z"/>
<path d="M4881 3045 c6 -22 17 -47 25 -56 23 -26 16 -29 -18 -10 -18 11 -44
22 -58 25 -24 7 -25 7 -5 -10 11 -9 34 -22 50 -30 23 -10 25 -13 10 -14 -11 0
-27 -5 -35 -11 -11 -8 -6 -9 21 -7 30 3 36 1 31 -12 -4 -11 1 -9 17 5 13 11
32 19 43 17 13 -2 19 1 16 9 -2 7 4 21 15 32 25 25 14 34 -18 13 -26 -17 -26
-17 -16 3 6 11 11 35 10 53 0 32 0 33 -11 8 -6 -14 -14 -41 -18 -60 l-7 -35
-8 31 c-4 17 -18 44 -31 60 l-23 29 10 -40z"/>
<path d="M8656 3041 c-5 -7 -8 -41 -8 -75 l1 -61 -19 35 c-18 34 -80 101 -80
86 0 -15 33 -72 58 -99 l26 -27 -29 9 c-38 12 -115 23 -115 16 0 -10 73 -35
104 -35 l31 -1 -31 -13 c-18 -8 -35 -19 -38 -25 -11 -17 26 -13 53 5 22 16 23
16 16 -6 -10 -31 13 -16 25 16 7 16 17 24 34 24 14 0 28 5 32 12 5 8 0 9 -15
5 -21 -5 -20 -4 4 25 41 48 30 60 -18 19 -17 -14 -18 -14 -13 9 8 34 -7 99
-18 81z"/>
<path d="M4470 2986 c0 -16 27 -64 44 -79 18 -15 14 -15 -22 3 -29 14 -57 20
-85 18 l-42 -4 45 -22 c25 -12 62 -22 83 -22 47 0 41 -15 -9 -25 -31 -5 -141
-75 -120 -75 28 0 106 27 131 45 53 38 57 38 31 -1 -14 -22 -32 -62 -40 -89
l-15 -50 33 38 c20 23 37 54 41 80 l8 42 6 -40 c4 -22 12 -49 19 -60 10 -18
11 -15 12 23 0 24 -5 53 -11 65 -12 22 -12 22 10 3 11 -11 24 -17 27 -14 3 3
-7 15 -22 27 -23 18 -27 29 -26 61 2 23 -2 40 -8 40 -5 0 -10 -10 -10 -22 -1
-22 -1 -22 -15 3 -12 23 -65 67 -65 55z"/>
<path d="M6400 2795 c-8 -27 -14 -70 -13 -95 2 -43 2 -44 -8 -15 -6 17 -22 39
-36 49 l-26 19 7 -29 c4 -16 17 -39 28 -51 l21 -23 -29 0 c-22 0 -26 -3 -14
-10 8 -5 25 -10 38 -10 23 0 26 -4 36 -52 4 -16 10 -28 15 -28 6 0 6 13 1 31
l-9 32 22 -20 c12 -12 37 -24 56 -28 l34 -7 -19 26 c-11 14 -32 30 -49 35 -28
9 -26 9 20 11 28 1 68 10 90 20 l40 19 -53 0 c-29 1 -69 -6 -89 -14 -42 -18
-53 -14 -21 7 37 25 72 63 97 109 l24 43 -29 -21 c-47 -34 -78 -65 -103 -105
-12 -21 -24 -38 -26 -38 -2 0 3 24 11 53 9 35 11 68 6 98 l-8 44 -14 -50z"/>
<path d="M6474 2450 c2 -41 7 -86 11 -100 5 -18 -1 -13 -22 17 -25 36 -70 76
-121 107 -8 5 3 -17 24 -48 20 -31 40 -56 43 -56 3 0 22 -14 41 -30 l35 -30
-44 15 c-24 8 -67 15 -95 15 l-51 -1 35 -19 c21 -12 57 -20 90 -20 l55 -2 -34
-12 c-19 -7 -41 -22 -49 -35 -15 -22 -14 -22 14 -15 16 4 39 16 52 27 l22 20
0 -29 c0 -22 3 -26 10 -14 5 8 10 25 10 38 0 16 6 22 23 22 13 0 32 7 43 16
18 15 18 15 -8 11 l-26 -4 18 26 c10 14 21 39 24 55 l7 28 -28 -22 c-15 -12
-31 -29 -35 -38 -4 -11 -7 -5 -7 18 -1 19 -10 58 -21 85 l-20 50 4 -75z"/>
<path d="M6444 2182 c-17 -15 -35 -36 -39 -47 -7 -17 -9 -15 -15 15 -8 38 -15
16 -11 -32 2 -19 -3 -28 -12 -28 -8 0 -22 -9 -32 -20 -20 -22 -14 -26 16 -9
19 10 20 9 9 -11 -6 -11 -10 -40 -8 -63 l3 -42 18 32 c9 18 17 42 18 55 1 18
4 15 13 -12 11 -37 65 -114 73 -106 9 9 -20 81 -50 125 l-31 45 45 -33 c40
-28 122 -61 152 -61 19 0 -88 70 -123 81 -65 20 -65 23 0 29 36 4 79 13 95 21
l30 14 -52 3 c-31 2 -66 -3 -89 -13 -43 -18 -56 -15 -19 5 20 11 52 67 42 76
-1 1 -16 -10 -33 -24z"/>
<path d="M6452 1817 c-17 -17 -40 -52 -51 -77 -17 -37 -20 -40 -16 -14 3 16
-1 45 -9 64 l-14 35 -7 -37 c-4 -20 -4 -46 0 -57 6 -21 -9 -30 -20 -11 -3 6
-12 10 -18 10 -7 0 2 -14 20 -29 28 -26 31 -34 26 -73 -3 -32 -2 -39 6 -28 6
8 11 24 11 35 1 15 4 13 14 -10 15 -34 66 -85 66 -66 0 23 -29 81 -41 81 -7 0
-10 3 -7 6 4 3 19 -1 35 -9 29 -15 133 -33 133 -23 0 13 -79 44 -130 51 l-55
8 55 12 c50 10 156 62 147 71 -9 10 -115 -20 -156 -44 -39 -23 -43 -24 -33 -5
6 11 19 26 28 34 16 14 58 99 51 105 -2 2 -17 -11 -35 -29z"/>
<path d="M6471 1474 c-24 -20 -34 -23 -50 -15 -11 6 -28 11 -38 11 -15 0 -14
-4 7 -20 24 -19 24 -20 4 -20 -21 0 -74 -35 -74 -49 0 -13 64 1 84 18 17 14
17 12 -2 -16 -20 -28 -46 -122 -37 -131 8 -8 55 80 64 118 14 61 21 60 21 -1
1 -35 9 -74 25 -109 l24 -55 1 57 c0 35 -8 74 -20 104 -11 26 -19 49 -16 51 2
2 17 -11 32 -30 29 -35 123 -100 108 -75 -25 43 -62 81 -91 97 l-34 17 50 0
c28 0 54 3 57 7 14 14 -8 21 -63 21 -30 0 -50 2 -44 4 11 4 36 42 27 42 -2 0
-18 -12 -35 -26z"/>
<path d="M6459 1137 c-20 -18 -45 -49 -55 -69 l-19 -37 0 49 c0 47 -8 70 -21
57 -4 -3 -7 -28 -7 -55 l-1 -50 -25 16 c-25 16 -26 16 -11 -3 8 -11 23 -27 33
-36 16 -13 17 -20 8 -37 -6 -11 -11 -28 -11 -37 0 -24 20 -7 21 18 1 19 2 18
14 -8 7 -16 25 -41 39 -54 l26 -25 -6 35 c-4 19 -16 45 -28 58 -21 24 -12 22
34 -9 21 -15 120 -34 120 -24 0 11 -92 53 -130 60 l-45 7 60 12 c33 6 83 23
110 38 l50 26 -60 -6 c-33 -3 -81 -16 -107 -29 -65 -33 -68 -30 -21 19 37 38
79 104 71 112 -2 2 -19 -11 -39 -28z"/>
</g>
</svg>
